<svg width="56" height="56" viewBox="0 0 56 56" fill="none" xmlns="http://www.w3.org/2000/svg">
<path d="M54.8955 36.424V42.6053C54.8955 44.7252 49.3056 46.4658 42.4213 46.4658C35.5371 46.4658 29.9918 44.7699 29.9918 42.6499L29.9806 41.9582L29.8914 37.0488H29.9248C30.9067 38.8675 36.0392 40.2622 42.2205 40.2622C49.1048 40.2622 54.8286 38.5439 54.8286 36.424H54.8955Z" fill="#ED664C"/>
<path d="M54.8954 30.3431V36.424H54.8284C54.8284 38.5439 49.1157 40.2622 42.2203 40.2622C36.039 40.2622 30.9065 38.8675 29.9247 37.0488H29.9023L29.88 35.7434L29.7908 30.4881C30.2148 32.4854 35.6262 34.0697 42.2315 34.0697C49.0153 34.0697 54.7057 32.4073 54.8731 30.3319H54.8954V30.3431Z" fill="#ED664C"/>
<path d="M54.873 30.2427C54.873 30.2761 54.873 30.3096 54.8619 30.3431C54.6833 32.4184 48.993 34.0809 42.2203 34.0809C35.615 34.0809 30.2147 32.4965 29.7796 30.4993C29.7572 30.41 29.7461 30.3319 29.7461 30.2427C29.7461 30.1088 29.7684 29.9749 29.813 29.8522C30.449 27.933 35.6485 26.4268 42.0195 26.4045C42.0864 26.4045 42.1533 26.4045 42.2091 26.4045C49.1045 26.3933 54.873 28.1116 54.873 30.2427Z" fill="#FDC75B"/>
<path d="M42.0308 26.2483V26.4045C35.6598 26.4379 30.4492 27.9331 29.8244 29.8522L29.2888 29.5844C28.028 29.5844 26.8006 29.5286 25.6514 29.417L25.3613 29.4728C24.8034 26.7615 23.3529 24.3849 21.3223 22.6444L21.4227 22.5328C23.5649 23.0683 26.3097 23.4031 29.2888 23.4031C36.173 23.4031 41.9415 21.6736 41.9415 19.5537H42.0308V26.2483Z" fill="#ED664C"/>
<path d="M42.0307 13.3835V19.5537H41.9414C41.9414 21.6736 36.1729 23.4031 29.2887 23.4031C26.3096 23.4031 23.5648 23.0795 21.4226 22.5328L21.3222 22.6443C20.0725 21.5732 18.5997 20.7476 16.9819 20.2455L17.0153 20.1339L16.8591 13.629C17.2831 15.6374 22.6946 17.2218 29.2999 17.2218C36.1729 17.2218 41.9303 15.5035 41.9526 13.3835H42.0307Z" fill="#ED664C"/>
<path d="M41.9414 13.3612C41.9414 13.3724 41.9414 13.3724 41.9414 13.3724C41.9191 15.4923 36.1617 17.2106 29.2887 17.2106C22.6834 17.2106 17.2831 15.6262 16.8479 13.6178C16.8256 13.5286 16.8145 13.4505 16.8145 13.3612C16.8145 11.2413 22.3933 9.52301 29.2775 9.52301C36.1729 9.52301 41.9414 11.2524 41.9414 13.3612Z" fill="#FDC75B"/>
<path d="M29.9023 37.06L29.9916 41.9693L29.3891 41.9805C26.4546 41.9805 23.8661 41.6792 21.7573 41.1548L21.6011 40.9875C23.1966 39.537 24.4016 37.6737 25.0599 35.576H25.3612C26.5997 35.7099 27.9274 35.7657 29.2998 35.7657L29.8912 35.7545L29.9023 37.06Z" fill="#ED664C"/>
<path d="M29.7908 30.4993L29.8801 35.7545L29.2887 35.7657C27.9163 35.7657 26.5886 35.6988 25.3501 35.576H25.0488C25.4059 34.4268 25.5956 33.2106 25.5956 31.9386C25.5956 31.0907 25.5063 30.265 25.3501 29.4728L25.6402 29.417C26.7894 29.5286 28.0168 29.5844 29.2776 29.5844L29.8131 29.8522C29.7685 29.9861 29.7462 30.1088 29.7462 30.2427C29.7573 30.3319 29.7685 30.4101 29.7908 30.4993Z" fill="#ED664C"/>
<path d="M25.35 29.4728C25.5062 30.265 25.5955 31.0907 25.5955 31.9386C25.5955 33.2106 25.4058 34.4268 25.0488 35.576C24.3905 37.6848 23.1855 39.537 21.5899 40.9875C19.4253 42.9735 16.5244 44.1785 13.3556 44.1785C6.59411 44.1785 1.11572 38.689 1.11572 31.9386C1.11572 25.1883 6.59411 19.6987 13.3556 19.6987C14.6164 19.6987 15.8326 19.8884 16.9818 20.2455C18.5997 20.7476 20.0725 21.5732 21.3221 22.6444C23.3528 24.3738 24.8033 26.7615 25.35 29.4728Z" fill="#FDC75B"/>
<path d="M51.47 26.4491C49.1939 25.7573 46.304 25.3556 43.1799 25.2887V13.3835C43.1799 13.1827 43.113 12.993 43.0126 12.8257C42.7001 11.4756 41.1939 10.3821 38.5272 9.5788C36.0167 8.82008 32.7364 8.40725 29.2887 8.40725C25.8522 8.40725 22.6053 8.82008 20.1395 9.5788C18.1199 10.2036 15.6987 11.364 15.6987 13.3612C15.6987 13.5063 15.7099 13.629 15.7322 13.7294L15.855 18.8173C15.0293 18.6611 14.1925 18.583 13.3445 18.583C5.99163 18.583 0 24.5746 0 31.9386C0 39.3026 5.99163 45.2943 13.3556 45.2943C16.4463 45.2943 19.4031 44.2343 21.7685 42.304C23.855 42.795 26.3096 43.0628 28.9093 43.0851C29.4784 46.1757 36.1729 47.5927 42.41 47.5927C45.8466 47.5927 49.0934 47.1688 51.5593 46.3989C53.59 45.7741 56 44.6025 56 42.6053V30.3431C56 30.265 56 30.198 55.9888 30.1311C55.9219 28.5802 54.4045 27.3417 51.47 26.4491ZM18.1088 19.4533L18.0307 16.3068C18.689 16.6527 19.5035 16.9651 20.4407 17.2329C22.8619 17.9358 25.9972 18.3152 29.2887 18.3152C32.7252 18.3152 36.0167 17.9024 38.5272 17.1436C39.4756 16.8536 40.2789 16.53 40.9484 16.1729V19.0962C40.8368 19.2301 40.848 19.3752 40.848 19.5314C40.848 19.6764 40.3124 20.4463 37.8912 21.1827C35.6262 21.8745 32.4909 22.265 29.2999 22.265C26.5439 22.265 23.8438 21.9749 21.7015 21.4282C21.6681 21.417 21.6457 21.417 21.6123 21.4059C20.5411 20.6025 19.3696 19.9331 18.1088 19.4533ZM29.2887 24.5188C32.7364 24.5188 36.0279 24.106 38.5384 23.3473C39.4868 23.0572 40.2789 22.7448 40.9484 22.3877V25.311C36.1506 25.4672 31.2301 26.4714 29.4003 28.4798C29.3668 28.4798 29.3222 28.4798 29.2887 28.4798C28.2176 28.4798 27.1799 28.4351 26.2204 28.3682C25.8075 26.8731 25.1269 25.4672 24.2232 24.2176C25.8298 24.4072 27.5481 24.5188 29.2887 24.5188ZM26.6555 30.6109C27.3026 30.6555 27.9833 30.6778 28.675 30.689L28.742 34.6388C27.9609 34.6276 27.1911 34.5941 26.4547 34.5383C26.622 33.6792 26.7113 32.8089 26.7113 31.9275C26.7113 31.4923 26.689 31.0572 26.6555 30.6109ZM25.8298 36.7364C26.7782 36.8145 27.7601 36.8703 28.7866 36.8814V37.0823L28.8536 40.8647C27.0126 40.8424 25.2608 40.6862 23.6876 40.4184C24.5802 39.3026 25.3166 38.0641 25.8298 36.7364ZM31.007 36.6694L30.9958 35.7322L30.9512 33.166C31.6206 33.5118 32.424 33.8243 33.3835 34.1032C35.8047 34.8061 38.94 35.1855 42.2315 35.1855C45.6234 35.1855 48.8591 34.7838 51.3473 34.0474C52.3068 33.7685 53.1213 33.4449 53.7908 33.0879V36.0446C53.7908 36.1562 53.7239 36.2901 53.7239 36.4128C53.7239 36.569 53.1994 37.3277 50.7894 38.0641C48.5021 38.7559 45.4561 39.1353 42.2315 39.1353C36.0391 39.1464 31.8773 37.7517 31.007 36.6694ZM53.7573 30.2315V30.2427C53.7462 30.41 53.1883 31.1799 50.7113 31.9163C48.424 32.5969 45.4114 32.9651 42.2315 32.9651C39.152 32.9651 36.2287 32.6081 34.0084 31.9721C31.6095 31.2803 30.9512 30.5105 30.8842 30.2761C30.8842 30.2538 30.8842 30.2427 30.8731 30.2427C30.8731 30.2315 30.8731 30.2092 30.8842 30.198C30.9847 29.8968 31.7768 29.1604 34.0865 28.5132C36.251 27.8996 39.0739 27.5537 42.0418 27.5537H42.2315C45.4226 27.5537 48.5467 27.9219 50.8229 28.6137C53.1883 29.3277 53.735 30.0642 53.7573 30.2315ZM20.8089 11.7322C23.0628 11.0404 26.0753 10.6499 29.2887 10.6499C32.4798 10.6499 35.6151 11.0404 37.8801 11.7322C40.3013 12.4686 40.8368 13.2273 40.8368 13.3724C40.8368 13.5286 40.2901 14.2985 37.8689 15.0237C35.6039 15.7043 32.4798 16.0948 29.2887 16.0948C26.2092 16.0948 23.2859 15.7378 21.0656 15.0907C18.6667 14.3989 17.9972 13.6402 17.9414 13.3947C17.9414 13.3724 17.9303 13.3724 17.9303 13.3724C17.9414 13.1604 18.4547 12.4463 20.8089 11.7322ZM20.8424 40.1618C18.8006 42.0363 16.1339 43.0628 13.3556 43.0628C7.21897 43.0628 2.23152 38.0753 2.23152 31.9386C2.23152 25.8019 7.21897 20.8145 13.3556 20.8145C14.4714 20.8145 15.576 20.9819 16.6471 21.3054C18.1088 21.7629 19.4365 22.4993 20.5969 23.4923C22.4714 25.0879 23.7657 27.2859 24.2566 29.6848C24.4017 30.4323 24.4798 31.1911 24.4798 31.9275C24.4798 33.0544 24.3124 34.1701 23.9777 35.2301C23.3975 37.1269 22.3152 38.8229 20.8424 40.1618ZM50.9121 44.2678C48.6583 44.9707 45.6346 45.3612 42.4212 45.3612C39.1967 45.3612 36.1841 44.9819 33.9526 44.3012C31.5983 43.576 31.1074 42.8284 31.1074 42.6611C31.1074 42.6499 31.1074 42.6499 31.1074 42.6388L31.0516 39.4031C31.8103 39.7824 32.7364 40.1283 33.8298 40.4184C36.1729 41.0321 39.152 41.378 42.2092 41.378C45.6569 41.378 48.9261 40.9651 51.4254 40.2064C52.2064 39.9721 52.9874 39.6597 53.7685 39.258V42.6165C53.7796 42.7615 53.2664 43.5425 50.9121 44.2678Z" fill="black"/>
</svg>
