<svg width="54" height="52" viewBox="0 0 54 52" fill="none" xmlns="http://www.w3.org/2000/svg">
<g clip-path="url(#clip0)">
<path d="M43.5377 25.8266C43.5377 34.6912 36.0426 41.9017 26.8305 41.9017C17.6174 41.9017 10.1223 34.6912 10.1223 25.8266C10.1223 16.962 17.6174 9.75049 26.8305 9.75049C36.0426 9.75049 43.5377 16.962 43.5377 25.8266V25.8266Z" fill="#FDBF00"/>
<path d="M43.5377 25.8266C43.5377 34.6912 36.0426 41.9017 26.8305 41.9017V9.75049C36.0426 9.75049 43.5377 16.962 43.5377 25.8266V25.8266Z" fill="#FF9100"/>
<path d="M40.3796 25.8265C40.3796 33.0148 34.3025 38.862 26.8305 38.863H26.8295C19.3586 38.863 13.2804 33.0148 13.2804 25.8265C13.2804 18.6373 19.3586 12.7889 26.8295 12.7889H26.8305C34.3025 12.7901 40.3796 18.6373 40.3796 25.8265Z" fill="#FFE9CB"/>
<path d="M40.3796 25.8265C40.3796 33.0148 34.3025 38.862 26.8305 38.863V12.7889C34.3025 12.7901 40.3796 18.6373 40.3796 25.8265V25.8265Z" fill="#FFD17B"/>
<path d="M51.1841 36.6828C48.1752 42.9379 42.8185 47.6899 36.0995 50.0619C33.1075 51.1193 30.0006 51.65 26.8875 51.65H26.8296C24.3723 51.6449 21.913 51.3097 19.501 50.6412C18.663 50.4083 18.1797 49.5667 18.4208 48.7605C18.6619 47.9543 19.5368 47.4894 20.3748 47.7213C22.4983 48.3098 24.6661 48.6055 26.8296 48.6106C29.5943 48.6167 32.3537 48.1487 35.012 47.2099C52.1446 41.159 55.903 19.427 41.9826 8.30204C41.312 7.76626 41.2193 6.80815 41.7763 6.163C42.3342 5.51683 43.3302 5.42872 44.0008 5.96449C52.9637 13.127 56.5066 25.6221 51.1841 36.6828Z" fill="#6BC900"/>
<path d="M33.1497 28.7568C33.1497 31.0877 31.258 33.2062 28.4095 33.2062V34.5301C28.4095 35.3687 27.7021 36.0494 26.8305 36.0494C25.9578 36.0494 25.2515 35.3687 25.2515 34.5301V33.2062C24.0654 33.2062 23.0473 33.0067 21.9356 32.2643C21.2187 31.7853 21.0408 30.8392 21.5376 30.1495C22.0344 29.4607 23.0187 29.2886 23.7357 29.7677C24.1157 30.0219 24.5504 30.1637 24.96 30.1677H28.5265C29.3388 30.1677 29.9917 29.5357 29.9917 28.7569C29.9917 27.9789 29.3339 27.3459 28.5254 27.3459H25.1346C22.5851 27.3459 20.5102 25.3496 20.5102 22.8964C20.5102 20.5629 22.4037 18.447 25.2515 18.447V17.1231C25.2515 16.2845 25.9578 15.6038 26.8305 15.6038C27.7021 15.6038 28.4095 16.2845 28.4095 17.1231V18.447C29.778 18.447 31.2255 19.0102 32.2813 20.0949C32.8781 20.7076 32.8455 21.6688 32.2097 22.2431C31.5728 22.8164 30.5738 22.785 29.9769 22.1733C29.5568 21.7418 28.9842 21.4905 28.4042 21.4856H25.1336C24.3223 21.4856 23.6683 22.1178 23.6683 22.8964C23.6683 23.6743 24.3262 24.3073 25.1346 24.3073H28.5253C31.0759 24.3072 33.1497 26.3036 33.1497 28.7568V28.7568Z" fill="#FDBF00"/>
<path d="M28.4042 21.4855H26.8305V15.6037C27.7021 15.6037 28.4095 16.2844 28.4095 17.123V18.4468C29.778 18.4468 31.2255 19.0101 32.2813 20.0948C32.8781 20.7075 32.8455 21.6687 32.2097 22.243C31.5729 22.8163 30.5739 22.7849 29.9769 22.1731C29.557 21.7416 28.9843 21.4904 28.4042 21.4855V21.4855Z" fill="#FF9100"/>
<path d="M33.5486 2.36689C33.3664 3.18726 32.5273 3.70987 31.6746 3.53567C30.0733 3.20752 28.4509 3.04243 26.8296 3.0394C24.0565 3.03433 21.2887 3.50123 18.6482 4.43402C1.51909 10.4835 -2.2489 32.2162 11.6765 43.3419L9.65832 45.6794C-6.07058 33.1115 -1.96991 8.47916 17.5596 1.58197C20.5517 0.525619 23.6869 -0.00508915 26.8296 -2.51361e-05C28.672 0.00301327 30.5154 0.190382 32.3336 0.564106C33.1864 0.739422 33.7307 1.54652 33.5486 2.36689V2.36689Z" fill="#FF4B00"/>
<path d="M33.5486 2.36692C33.3665 3.18729 32.5274 3.7099 31.6746 3.53569C30.0733 3.20755 28.4509 3.04246 26.8296 3.03942V0C28.672 0.00303841 30.5155 0.190407 32.3337 0.564131C33.1864 0.739447 33.7307 1.54655 33.5486 2.36692V2.36692Z" fill="#FF0000"/>
<path d="M10.3725 45.9969L3.85525 44.7924C2.99869 44.6341 2.43776 43.8378 2.60242 43.0138C2.76697 42.1898 3.59448 41.6505 4.45125 41.8086L8.79712 42.6117L8.2484 38.8816C8.12617 38.0509 8.72711 37.2821 9.59073 37.1646C10.4534 37.0454 11.2533 37.6252 11.3755 38.4559L12.2341 44.2922C12.3858 45.3227 11.4366 46.1933 10.3725 45.9969V45.9969Z" fill="#FF0000"/>
<path d="M33.1498 28.7568C33.1498 31.0878 31.258 33.2062 28.4095 33.2062V34.5301C28.4095 35.3687 27.7021 36.0494 26.8305 36.0494V30.1676H28.5264C29.3387 30.1676 29.9917 29.5356 29.9917 28.7568C29.9917 27.9789 29.3338 27.3459 28.5253 27.3459H26.8305V24.3073H28.5253C31.0759 24.3073 33.1498 26.3036 33.1498 28.7568V28.7568Z" fill="#FF9100"/>
<path d="M44.0008 5.96442L41.9826 8.30197C55.9074 19.4305 52.1402 41.1605 35.012 47.2098C32.3537 48.1487 29.5943 48.6166 26.8296 48.6105V51.6499H26.8875C30.0006 51.6499 33.1075 51.1192 36.0995 50.0619C42.8185 47.6899 48.1752 42.9378 51.1841 36.6827C56.509 25.617 52.9589 13.1233 44.0008 5.96442V5.96442Z" fill="#00AB5E"/>
<path d="M42.2837 13.1885L41.4252 7.3521C41.2732 6.32086 42.2234 5.45086 43.2867 5.64735L49.804 6.85187C50.6606 7.01017 51.2215 7.80644 51.0569 8.63046C50.8923 9.45447 50.0641 9.99369 49.208 9.83569L44.8622 9.03254L45.4109 12.7628C45.5331 13.5935 44.9322 14.3623 44.0685 14.4798C43.2096 14.5977 42.4064 14.0226 42.2837 13.1885V13.1885Z" fill="#008575"/>
</g>
<defs>
<clipPath id="clip0">
<rect width="53.69" height="51.65" fill="white"/>
</clipPath>
</defs>
</svg>
