<svg width="54" height="53" viewBox="0 0 54 53" fill="none" xmlns="http://www.w3.org/2000/svg">
<g clip-path="url(#clip0)">
<path d="M52.4037 26.7826C52.4037 40.1634 41.1118 51.1087 27.0593 51.1087C13.0067 51.1087 1.71484 40.1634 1.71484 26.7826C1.71484 13.4018 13.0067 2.45654 27.0593 2.45654C41.1118 2.45654 52.4037 13.4018 52.4037 26.7826Z" fill="#FFCE82" stroke="#FF0000" stroke-width="3"/>
<path d="M33.3736 14.6516V18.0841C29.9041 18.5846 26.4071 18.8896 22.9005 18.9977C28.7899 18.7604 33.3736 16.9049 33.3736 14.6516Z" fill="#BBBBCD"/>
<path d="M44.2565 15.4498V40.0435C44.2565 40.0435 41.4747 40.8288 37.4544 41.6266C37.2446 41.6669 37.0349 41.7101 36.8181 41.7476C32.4441 42.5906 26.7745 43.4021 21.6178 43.2697C15.1286 43.1039 9.86206 41.3126 9.86206 38.8995V14.6516L21.6178 19.0231C24.1727 18.9206 34.5329 17.9335 36.3617 17.5841C36.5148 17.5554 36.6646 17.5264 36.8181 17.4945C37.0312 17.4562 37.2409 17.411 37.4544 17.3662C39.7715 16.904 42.0462 16.2631 44.2565 15.4498Z" fill="#EEEFEE"/>
<path d="M33.3736 14.6516C33.3736 16.905 28.7899 18.7604 22.9005 18.9977C22.8304 19.0009 22.7604 19.0037 22.6971 19.0037L22.3774 19.0134C21.8875 19.0231 21.6178 19.0231 21.6178 19.0231C15.1252 19.0231 9.86206 17.0652 9.86206 14.6516C9.86206 12.2381 15.1252 10.2806 21.6178 10.2806C28.1104 10.2806 33.3736 12.2385 33.3736 14.6516Z" fill="#DBD8DD"/>
<path d="M21.6183 16.5131C24.7104 16.5131 27.217 15.6799 27.217 14.652C27.217 13.6242 24.7104 12.791 21.6183 12.791C18.5262 12.791 16.0195 13.6242 16.0195 14.652C16.0195 15.6799 18.5262 16.5131 21.6183 16.5131Z" fill="#828A9E"/>
<path d="M37.4543 17.3662V18.0712H36.8181V17.4945C37.0311 17.4562 37.2409 17.411 37.4543 17.3662Z" fill="#DBD8DD"/>
<path d="M36.8188 19.1321H37.4555V20.2878H36.8188V19.1321Z" fill="#DBD8DD"/>
<path d="M36.8188 21.347H37.4555V22.5028H36.8188V21.347Z" fill="#DBD8DD"/>
<path d="M36.8188 23.562H37.4555V24.7177H36.8188V23.562Z" fill="#DBD8DD"/>
<path d="M36.8188 25.777H37.4555V26.9328H36.8188V25.777Z" fill="#DBD8DD"/>
<path d="M36.8188 27.9916H37.4555V29.1474H36.8188V27.9916Z" fill="#DBD8DD"/>
<path d="M36.8188 30.2066H37.4555V31.3623H36.8188V30.2066Z" fill="#DBD8DD"/>
<path d="M36.8188 32.4216H37.4555V33.5773H36.8188V32.4216Z" fill="#DBD8DD"/>
<path d="M36.8188 34.6366H37.4555V35.7923H36.8188V34.6366Z" fill="#DBD8DD"/>
<path d="M36.8188 36.8516H37.4555V38.0073H36.8188V36.8516Z" fill="#DBD8DD"/>
<path d="M36.8188 39.0666H37.4555V40.2223H36.8188V39.0666Z" fill="#DBD8DD"/>
<path d="M37.4543 41.2808V41.6267C37.2446 41.667 37.0349 41.7102 36.8181 41.7477V41.2808H37.4543Z" fill="#DBD8DD"/>
<line x1="4.20755" y1="40.7264" x2="49.2075" y2="12.7264" stroke="#FF0000" stroke-width="3"/>
</g>
<defs>
<clipPath id="clip0">
<rect width="53.6889" height="51.6522" fill="white" transform="translate(0.214844 0.956543)"/>
</clipPath>
</defs>
</svg>
