<svg width="48" height="44" viewBox="0 0 48 44" fill="none" xmlns="http://www.w3.org/2000/svg">
<path d="M24 44C37.2548 44 48 34.1503 48 22C48 9.84974 37.2548 0 24 0C10.7452 0 0 9.84974 0 22C0 34.1503 10.7452 44 24 44Z" fill="#FFCE82"/>
<path d="M30.5 17.6562C25.8055 17.6562 22 19.1743 22 21.0469C22 22.9195 25.8055 24.4375 30.5 24.4375C35.1945 24.4375 39 22.9195 39 21.0469C39 19.1743 35.1945 17.6562 30.5 17.6562ZM30.5 22.5C27.7385 22.5 25.5 21.8495 25.5 21.0469C25.5 20.2443 27.7385 19.5938 30.5 19.5938C33.2615 19.5938 35.5 20.2443 35.5 21.0469C35.5 21.8495 33.2615 22.5 30.5 22.5Z" fill="#F4B2B0"/>
<path d="M17.5 7.96875C12.8055 7.96875 9 9.48678 9 11.3594C9 13.232 12.8055 14.75 17.5 14.75C22.1945 14.75 26 13.232 26 11.3594C26 9.48678 22.1945 7.96875 17.5 7.96875ZM17.5 12.8125C14.7385 12.8125 12.5 12.162 12.5 11.3594C12.5 10.5568 14.7385 9.90625 17.5 9.90625C20.2615 9.90625 22.5 10.5568 22.5 11.3594C22.5 12.162 20.2615 12.8125 17.5 12.8125Z" fill="#F4B2B0"/>
<path d="M30.5 17.1719C29.043 17.1719 27.694 17.3099 26.5 17.5531V11.3594C26.5 9.15014 22.631 7.48438 17.5 7.48438C12.369 7.48438 8.5 9.15014 8.5 11.3594V23.9531C8.5 26.1624 12.369 27.8281 17.5 27.8281C18.9015 27.8281 20.265 27.6867 21.5 27.4319V28.7969H10C9.173 28.7969 8.5 29.4488 8.5 30.25C8.5 31.0512 9.173 31.7031 10 31.7031H15C15.2755 31.7031 15.5 31.9206 15.5 32.1875C15.5 32.4544 15.2755 32.6719 15 32.6719H12.5C11.673 32.6719 11 33.3238 11 34.125C11 34.9262 11.673 35.5781 12.5 35.5781H22.6365C24.147 36.7532 27.0325 37.5156 30.5 37.5156C35.631 37.5156 39.5 35.8499 39.5 33.6406V21.0469C39.5 18.8376 35.631 17.1719 30.5 17.1719ZM30.5 18.1406C35.2145 18.1406 38.5 19.6722 38.5 21.0469C38.5 22.4215 35.2145 23.9531 30.5 23.9531C25.7855 23.9531 22.5 22.4215 22.5 21.0469C22.5 19.6722 25.7855 18.1406 30.5 18.1406ZM17.5 8.45312C22.2145 8.45312 25.5 9.98472 25.5 11.3594C25.5 12.734 22.2145 14.2656 17.5 14.2656C12.7855 14.2656 9.5 12.734 9.5 11.3594C9.5 9.98472 12.7855 8.45312 17.5 8.45312ZM12.5 34.6094C12.2245 34.6094 12 34.3919 12 34.125C12 33.8581 12.2245 33.6406 12.5 33.6406H15C15.827 33.6406 16.5 32.9887 16.5 32.1875C16.5 31.3863 15.827 30.7344 15 30.7344H10C9.7245 30.7344 9.5 30.5169 9.5 30.25C9.5 29.9831 9.7245 29.7656 10 29.7656H21.5V33.6406C21.5 33.9782 21.6005 34.3013 21.772 34.6094H12.5ZM21.5 21.0469V26.4404C20.281 26.7107 18.912 26.8594 17.5 26.8594C12.7855 26.8594 9.5 25.3278 9.5 23.9531V13.1874C10.968 14.4245 13.9255 15.2344 17.5 15.2344C21.0745 15.2344 24.032 14.4245 25.5 13.1874V17.7895C23.0565 18.4671 21.5 19.647 21.5 21.0469ZM30.5 36.5469C25.7855 36.5469 22.5 35.0153 22.5 33.6406V22.8749C23.968 24.112 26.9255 24.9219 30.5 24.9219C34.0745 24.9219 37.032 24.112 38.5 22.8749V33.6406C38.5 35.0153 35.2145 36.5469 30.5 36.5469Z" fill="#B3404A"/>
<path d="M30.5 22.9844C33.149 22.9844 36 22.3779 36 21.0469C36 19.7158 33.149 19.1094 30.5 19.1094C27.851 19.1094 25 19.7158 25 21.0469C25 22.3779 27.851 22.9844 30.5 22.9844ZM30.5 20.0781C33.3985 20.0781 34.8975 20.7727 34.9985 21.0469C34.8975 21.321 33.399 22.0156 30.5 22.0156C27.575 22.0156 26.0755 21.3084 25.9995 21.0541C26.0755 20.7853 27.575 20.0781 30.5 20.0781Z" fill="#B3404A"/>
<path d="M17.5 13.2969C20.149 13.2969 23 12.6904 23 11.3594C23 10.0283 20.149 9.42188 17.5 9.42188C14.851 9.42188 12 10.0283 12 11.3594C12 12.6904 14.851 13.2969 17.5 13.2969ZM17.5 10.3906C20.3985 10.3906 21.8975 11.0852 21.9985 11.3594C21.8975 11.6335 20.399 12.3281 17.5 12.3281C14.575 12.3281 13.0755 11.6209 12.9995 11.3666C13.0755 11.0978 14.575 10.3906 17.5 10.3906Z" fill="#B3404A"/>
<path d="M10.5 16.2031H11.5V22.0156H10.5V16.2031Z" fill="#B3404A"/>
<path d="M10.5 22.9844H11.5V23.9531H10.5V22.9844Z" fill="#B3404A"/>
<path d="M23.5 25.8906H24.5V31.7031H23.5V25.8906Z" fill="#B3404A"/>
<path d="M23.5 32.6719H24.5V33.6406H23.5V32.6719Z" fill="#B3404A"/>
<path d="M30.5 17.6562C25.8055 17.6562 22 19.1743 22 21.0469C22 22.9195 25.8055 24.4375 30.5 24.4375C35.1945 24.4375 39 22.9195 39 21.0469C39 19.1743 35.1945 17.6562 30.5 17.6562ZM30.5 22.5C27.7385 22.5 25.5 21.8495 25.5 21.0469C25.5 20.2443 27.7385 19.5938 30.5 19.5938C33.2615 19.5938 35.5 20.2443 35.5 21.0469C35.5 21.8495 33.2615 22.5 30.5 22.5Z" fill="#F4B2B0"/>
<path d="M17.5 7.96875C12.8055 7.96875 9 9.48678 9 11.3594C9 13.232 12.8055 14.75 17.5 14.75C22.1945 14.75 26 13.232 26 11.3594C26 9.48678 22.1945 7.96875 17.5 7.96875ZM17.5 12.8125C14.7385 12.8125 12.5 12.162 12.5 11.3594C12.5 10.5568 14.7385 9.90625 17.5 9.90625C20.2615 9.90625 22.5 10.5568 22.5 11.3594C22.5 12.162 20.2615 12.8125 17.5 12.8125Z" fill="#F4B2B0"/>
<path d="M30.5 17.1719C29.043 17.1719 27.694 17.3099 26.5 17.5531V11.3594C26.5 9.15014 22.631 7.48438 17.5 7.48438C12.369 7.48438 8.5 9.15014 8.5 11.3594V23.9531C8.5 26.1624 12.369 27.8281 17.5 27.8281C18.9015 27.8281 20.265 27.6867 21.5 27.4319V28.7969H10C9.173 28.7969 8.5 29.4488 8.5 30.25C8.5 31.0512 9.173 31.7031 10 31.7031H15C15.2755 31.7031 15.5 31.9206 15.5 32.1875C15.5 32.4544 15.2755 32.6719 15 32.6719H12.5C11.673 32.6719 11 33.3238 11 34.125C11 34.9262 11.673 35.5781 12.5 35.5781H22.6365C24.147 36.7532 27.0325 37.5156 30.5 37.5156C35.631 37.5156 39.5 35.8499 39.5 33.6406V21.0469C39.5 18.8376 35.631 17.1719 30.5 17.1719ZM30.5 18.1406C35.2145 18.1406 38.5 19.6722 38.5 21.0469C38.5 22.4215 35.2145 23.9531 30.5 23.9531C25.7855 23.9531 22.5 22.4215 22.5 21.0469C22.5 19.6722 25.7855 18.1406 30.5 18.1406ZM17.5 8.45312C22.2145 8.45312 25.5 9.98472 25.5 11.3594C25.5 12.734 22.2145 14.2656 17.5 14.2656C12.7855 14.2656 9.5 12.734 9.5 11.3594C9.5 9.98472 12.7855 8.45312 17.5 8.45312ZM12.5 34.6094C12.2245 34.6094 12 34.3919 12 34.125C12 33.8581 12.2245 33.6406 12.5 33.6406H15C15.827 33.6406 16.5 32.9887 16.5 32.1875C16.5 31.3863 15.827 30.7344 15 30.7344H10C9.7245 30.7344 9.5 30.5169 9.5 30.25C9.5 29.9831 9.7245 29.7656 10 29.7656H21.5V33.6406C21.5 33.9782 21.6005 34.3013 21.772 34.6094H12.5ZM21.5 21.0469V26.4404C20.281 26.7107 18.912 26.8594 17.5 26.8594C12.7855 26.8594 9.5 25.3278 9.5 23.9531V13.1874C10.968 14.4245 13.9255 15.2344 17.5 15.2344C21.0745 15.2344 24.032 14.4245 25.5 13.1874V17.7895C23.0565 18.4671 21.5 19.647 21.5 21.0469ZM30.5 36.5469C25.7855 36.5469 22.5 35.0153 22.5 33.6406V22.8749C23.968 24.112 26.9255 24.9219 30.5 24.9219C34.0745 24.9219 37.032 24.112 38.5 22.8749V33.6406C38.5 35.0153 35.2145 36.5469 30.5 36.5469Z" fill="#B3404A"/>
<path d="M30.5 22.9844C33.149 22.9844 36 22.3779 36 21.0469C36 19.7158 33.149 19.1094 30.5 19.1094C27.851 19.1094 25 19.7158 25 21.0469C25 22.3779 27.851 22.9844 30.5 22.9844ZM30.5 20.0781C33.3985 20.0781 34.8975 20.7727 34.9985 21.0469C34.8975 21.321 33.399 22.0156 30.5 22.0156C27.575 22.0156 26.0755 21.3084 25.9995 21.0541C26.0755 20.7853 27.575 20.0781 30.5 20.0781Z" fill="#B3404A"/>
<path d="M17.5 13.2969C20.149 13.2969 23 12.6904 23 11.3594C23 10.0283 20.149 9.42188 17.5 9.42188C14.851 9.42188 12 10.0283 12 11.3594C12 12.6904 14.851 13.2969 17.5 13.2969ZM17.5 10.3906C20.3985 10.3906 21.8975 11.0852 21.9985 11.3594C21.8975 11.6335 20.399 12.3281 17.5 12.3281C14.575 12.3281 13.0755 11.6209 12.9995 11.3666C13.0755 11.0978 14.575 10.3906 17.5 10.3906Z" fill="#B3404A"/>
<path d="M10.5 16.2031H11.5V22.0156H10.5V16.2031Z" fill="#B3404A"/>
<path d="M10.5 22.9844H11.5V23.9531H10.5V22.9844Z" fill="#B3404A"/>
<path d="M23.5 25.8906H24.5V31.7031H23.5V25.8906Z" fill="#B3404A"/>
<path d="M23.5 32.6719H24.5V33.6406H23.5V32.6719Z" fill="#B3404A"/>
</svg>
