<svg width="28" height="30" viewBox="0 0 28 30" fill="none" xmlns="http://www.w3.org/2000/svg">
<path d="M28 2.89221V27.1078C28 28.7347 26.8125 30 25.3 30H2.7C1.20625 29.9933 0 28.748 0 27.1011V2.89221C0 1.27873 1.175 0 2.7 0H25.3062C26.8062 0 28 1.25865 28 2.89221ZM25.6688 27.1011V2.89221C25.6688 2.69136 25.5062 2.50391 25.3062 2.50391H24.725L17.8312 7.49833L14 4.15755L10.175 7.49833L3.28125 2.49721H2.7C2.5 2.49721 2.3375 2.68467 2.3375 2.88552V27.1011C2.3375 27.3019 2.5 27.4894 2.7 27.4894H25.3062C25.5062 27.4961 25.6688 27.3086 25.6688 27.1011V27.1011ZM9.3875 10.3102V12.7873H4.79375V10.3102H9.3875ZM9.3875 15.2912V17.7884H4.79375V15.2912H9.3875ZM10.0813 5.42959L13.4563 2.50391H6.05L10.0813 5.42959V5.42959ZM23.2062 10.3102V12.7873H10.9563V10.3102H23.2062ZM23.2062 15.2912V17.7884H10.9563V15.2912H23.2062ZM17.9188 5.42959L21.95 2.50391H14.55L17.9188 5.42959V5.42959ZM23.2062 20.2856V22.7829H16.9937V20.2856H23.2062V20.2856Z" fill="#FDA45E"/>
</svg>
