<svg width="54" height="53" viewBox="0 0 54 53" fill="none" xmlns="http://www.w3.org/2000/svg">
<g clip-path="url(#clip0)">
<path d="M26.8444 52.6087C41.6702 52.6087 53.6889 41.046 53.6889 26.7826C53.6889 12.5193 41.6702 0.956543 26.8444 0.956543C12.0187 0.956543 0 12.5193 0 26.7826C0 41.046 12.0187 52.6087 26.8444 52.6087Z" fill="#FFCE82"/>
<path d="M33.1588 14.6516V18.0841C29.6892 18.5846 26.1922 18.8896 22.6857 18.9977C28.5751 18.7604 33.1588 16.9049 33.1588 14.6516Z" fill="#BBBBCD"/>
<path d="M44.0417 15.4498V40.0435C44.0417 40.0435 41.2599 40.8288 37.2395 41.6266C37.0298 41.6669 36.8201 41.7101 36.6032 41.7476C32.2293 42.5906 26.5596 43.4021 21.403 43.2697C14.9138 43.1039 9.64722 41.3126 9.64722 38.8995V14.6516L21.403 19.0231C23.9578 18.9206 34.3181 17.9335 36.1469 17.5841C36.3 17.5554 36.4497 17.5264 36.6032 17.4945C36.8163 17.4562 37.026 17.411 37.2395 17.3662C39.5567 16.904 41.8314 16.2631 44.0417 15.4498Z" fill="#EEEFEE"/>
<path d="M33.1588 14.6516C33.1588 16.905 28.5751 18.7604 22.6856 18.9977C22.6156 19.0009 22.5455 19.0037 22.4822 19.0037L22.1626 19.0134C21.6727 19.0231 21.403 19.0231 21.403 19.0231C14.9104 19.0231 9.64722 17.0652 9.64722 14.6516C9.64722 12.2381 14.9104 10.2806 21.403 10.2806C27.8956 10.2806 33.1588 12.2385 33.1588 14.6516Z" fill="#DBD8DD"/>
<path d="M21.4034 16.5131C24.4955 16.5131 27.0022 15.6799 27.0022 14.652C27.0022 13.6242 24.4955 12.791 21.4034 12.791C18.3113 12.791 15.8047 13.6242 15.8047 14.652C15.8047 15.6799 18.3113 16.5131 21.4034 16.5131Z" fill="#828A9E"/>
<path d="M37.2395 17.3662V18.0712H36.6032V17.4945C36.8163 17.4562 37.026 17.411 37.2395 17.3662Z" fill="#DBD8DD"/>
<path d="M36.6039 19.1321H37.2407V20.2878H36.6039V19.1321Z" fill="#DBD8DD"/>
<path d="M36.6039 21.347H37.2407V22.5028H36.6039V21.347Z" fill="#DBD8DD"/>
<path d="M36.6039 23.562H37.2407V24.7177H36.6039V23.562Z" fill="#DBD8DD"/>
<path d="M36.6039 25.777H37.2407V26.9328H36.6039V25.777Z" fill="#DBD8DD"/>
<path d="M36.6039 27.9916H37.2407V29.1474H36.6039V27.9916Z" fill="#DBD8DD"/>
<path d="M36.6039 30.2066H37.2407V31.3623H36.6039V30.2066Z" fill="#DBD8DD"/>
<path d="M36.6039 32.4216H37.2407V33.5773H36.6039V32.4216Z" fill="#DBD8DD"/>
<path d="M36.6039 34.6366H37.2407V35.7923H36.6039V34.6366Z" fill="#DBD8DD"/>
<path d="M36.6039 36.8516H37.2407V38.0073H36.6039V36.8516Z" fill="#DBD8DD"/>
<path d="M36.6039 39.0666H37.2407V40.2223H36.6039V39.0666Z" fill="#DBD8DD"/>
<path d="M37.2395 41.2808V41.6267C37.0298 41.667 36.8201 41.7102 36.6032 41.7477V41.2808H37.2395Z" fill="#DBD8DD"/>
</g>
<defs>
<clipPath id="clip0">
<rect width="53.6889" height="51.6522" fill="white" transform="translate(0 0.956543)"/>
</clipPath>
</defs>
</svg>
