<svg width="28" height="30" viewBox="0 0 28 30" fill="none" xmlns="http://www.w3.org/2000/svg">
<path d="M13.6288 7.78279L4.66704 17.9524V28.9285C4.66704 29.2126 4.74897 29.4852 4.89482 29.6862C5.04067 29.8871 5.23849 30 5.44475 30L10.8917 29.9806C11.0973 29.9792 11.2941 29.8656 11.4391 29.6648C11.5841 29.464 11.6655 29.1923 11.6655 28.909V22.4992C11.6655 22.215 11.7475 21.9424 11.8933 21.7415C12.0392 21.5405 12.237 21.4276 12.4432 21.4276H15.5541C15.7604 21.4276 15.9582 21.5405 16.104 21.7415C16.2499 21.9424 16.3318 22.215 16.3318 22.4992V28.9043C16.3315 29.0453 16.3514 29.185 16.3903 29.3154C16.4293 29.4458 16.4865 29.5643 16.5588 29.6642C16.631 29.7641 16.7169 29.8433 16.8114 29.8974C16.9059 29.9514 17.0072 29.9792 17.1096 29.9792L22.5545 30C22.7608 30 22.9586 29.8871 23.1045 29.6862C23.2503 29.4852 23.3323 29.2126 23.3323 28.9285V17.9451L14.3725 7.78279C14.2671 7.6658 14.1359 7.60201 14.0006 7.60201C13.8653 7.60201 13.7341 7.6658 13.6288 7.78279V7.78279ZM27.7847 14.6949L23.7211 10.0799V0.803661C23.7211 0.590517 23.6597 0.386103 23.5503 0.235387C23.4409 0.0846713 23.2925 0 23.1378 0H20.4158C20.2611 0 20.1128 0.0846713 20.0034 0.235387C19.894 0.386103 19.8325 0.590517 19.8325 0.803661V5.66648L15.4807 0.733341C15.0631 0.259836 14.539 0.000946542 13.9982 0.000946542C13.4573 0.000946542 12.9333 0.259836 12.5157 0.733341L0.211684 14.6949C0.15262 14.7622 0.103754 14.8448 0.0678782 14.9381C0.0320021 15.0314 0.00981906 15.1335 0.00259668 15.2387C-0.0046257 15.3438 0.0032541 15.4498 0.0257858 15.5507C0.0483176 15.6516 0.0850596 15.7454 0.133913 15.8268L1.3734 17.9029C1.42212 17.9845 1.48205 18.0521 1.54975 18.1018C1.61745 18.1514 1.69159 18.1822 1.76794 18.1924C1.84429 18.2025 1.92134 18.1918 1.99468 18.1609C2.06802 18.1299 2.13621 18.0794 2.19535 18.0121L13.6288 5.03695C13.7341 4.91996 13.8653 4.85617 14.0006 4.85617C14.1359 4.85617 14.2671 4.91996 14.3725 5.03695L25.8064 18.0121C25.8654 18.0794 25.9335 18.13 26.0067 18.161C26.08 18.1921 26.1569 18.2029 26.2332 18.193C26.3095 18.183 26.3836 18.1525 26.4513 18.103C26.5191 18.0536 26.579 17.9863 26.6278 17.9049L27.8673 15.8288C27.9161 15.747 27.9527 15.6527 27.975 15.5513C27.9973 15.45 28.0048 15.3436 27.9971 15.2382C27.9894 15.1328 27.9667 15.0306 27.9302 14.9374C27.8938 14.8441 27.8443 14.7617 27.7847 14.6949V14.6949Z" fill="#A57C7C"/>
</svg>
