<svg width="28" height="30" viewBox="0 0 28 30" fill="none" xmlns="http://www.w3.org/2000/svg">
<path d="M16.3333 7.96875V0H1.75C0.780208 0 0 0.626953 0 1.40625V28.5938C0 29.373 0.780208 30 1.75 30H26.25C27.2198 30 28 29.373 28 28.5938V9.375H18.0833C17.1208 9.375 16.3333 8.74219 16.3333 7.96875ZM21 21.7969C21 22.1836 20.6062 22.5 20.125 22.5H7.875C7.39375 22.5 7 22.1836 7 21.7969V21.3281C7 20.9414 7.39375 20.625 7.875 20.625H20.125C20.6062 20.625 21 20.9414 21 21.3281V21.7969ZM21 18.0469C21 18.4336 20.6062 18.75 20.125 18.75H7.875C7.39375 18.75 7 18.4336 7 18.0469V17.5781C7 17.1914 7.39375 16.875 7.875 16.875H20.125C20.6062 16.875 21 17.1914 21 17.5781V18.0469ZM21 13.8281V14.2969C21 14.6836 20.6062 15 20.125 15H7.875C7.39375 15 7 14.6836 7 14.2969V13.8281C7 13.4414 7.39375 13.125 7.875 13.125H20.125C20.6062 13.125 21 13.4414 21 13.8281ZM28 7.14258V7.5H18.6667V0H19.1115C19.5781 0 20.0229 0.146484 20.351 0.410156L27.4896 6.15234C27.8177 6.41602 28 6.77344 28 7.14258Z" fill="#A57C7C"/>
</svg>
