<svg width="28" height="30" viewBox="0 0 28 30" fill="none" xmlns="http://www.w3.org/2000/svg">
<path d="M27.3 26.25H23.8V6.64741C23.8 5.05014 22.858 3.74995 21.7 3.74995H16.8V7.49996H21V30H27.3C27.6867 30 28 29.5805 28 29.0625V27.1875C28 26.6695 27.6867 26.25 27.3 26.25ZM13.6605 0.0591227L5.2605 2.97357C4.63707 3.18979 4.2 3.96675 4.2 4.85855V26.25H0.7C0.31325 26.25 0 26.6695 0 27.1875V29.0625C0 29.5805 0.31325 30 0.7 30H15.4V1.94409C15.4 0.679631 14.5442 -0.247909 13.6605 0.0591227ZM11.55 16.875C10.9703 16.875 10.5 16.0353 10.5 15C10.5 13.9646 10.9703 13.125 11.55 13.125C12.1297 13.125 12.6 13.9646 12.6 15C12.6 16.0353 12.1297 16.875 11.55 16.875Z" fill="#A57C7C"/>
</svg>
