<svg width="70" height="54" viewBox="0 0 70 54" fill="none" xmlns="http://www.w3.org/2000/svg">
<ellipse cx="35" cy="46" rx="35" ry="8" fill="#F2DCBA"/>
<path d="M32.496 47.0316C17.7391 27.2842 15 25.2575 15 18C15 8.05884 23.7304 0 34.5 0C45.2696 0 54 8.05884 54 18C54 25.2575 51.2609 27.2842 36.504 47.0316C35.5356 48.3229 33.4643 48.3228 32.496 47.0316ZM34.5 25.5C38.9873 25.5 42.625 22.1422 42.625 18C42.625 13.8578 38.9873 10.5 34.5 10.5C30.0127 10.5 26.375 13.8578 26.375 18C26.375 22.1422 30.0127 25.5 34.5 25.5Z" fill="#FB915D"/>
</svg>
