<svg width="28" height="30" viewBox="0 0 28 30" fill="none" xmlns="http://www.w3.org/2000/svg">
<path d="M14 0C10.6172 0 7.875 3.30527 7.875 7.38281C7.875 10.6793 11.8781 16.6875 13.4118 18.8684C13.7224 19.3102 14.2781 19.3102 14.5882 18.8684C16.1219 16.6875 20.125 10.6793 20.125 7.38281C20.125 3.30527 17.3828 0 14 0ZM14 9.84375C12.8722 9.84375 11.9583 8.74219 11.9583 7.38281C11.9583 6.02344 12.8722 4.92188 14 4.92188C15.1278 4.92188 16.0417 6.02344 16.0417 7.38281C16.0417 8.74219 15.1278 9.84375 14 9.84375ZM0.978056 12.6533C0.689392 12.7925 0.441938 13.0327 0.267609 13.343C0.0932792 13.6533 6.91351e-05 14.0194 0 14.3941L0 29.0613C0 29.7246 0.555625 30.1781 1.06653 29.932L7.77778 26.25V12.593C7.34806 11.6566 6.9966 10.7449 6.74479 9.87305L0.978056 12.6533ZM14 21.0744C13.316 21.0744 12.669 20.7123 12.2252 20.0807C11.2695 18.7213 10.2531 17.1732 9.33333 15.5854V26.2494L18.6667 29.9994V15.5859C17.7469 17.1732 16.731 18.7219 15.7748 20.0813C15.331 20.7123 14.684 21.0744 14 21.0744ZM26.9335 9.44297L20.2222 13.125V30L27.0219 26.7217C27.3106 26.5826 27.5581 26.3424 27.7325 26.0321C27.9068 25.7218 28 25.3556 28 24.9809V10.3137C28 9.65039 27.4444 9.19688 26.9335 9.44297Z" fill="#FDA45E"/>
</svg>
