<svg width="23" height="15" viewBox="0 0 23 15" fill="none" xmlns="http://www.w3.org/2000/svg">
<path d="M13.221 13.9953L12.0814 14.7578C11.5988 15.0807 10.8185 15.0807 10.3411 14.7578L0.361902 8.08393C-0.120634 7.76105 -0.120634 7.23895 0.361902 6.91951L10.3411 0.242157C10.8237 -0.080719 11.604 -0.080719 12.0814 0.242157L13.221 1.00469C13.7086 1.33101 13.6984 1.86341 13.2004 2.18285L7.01473 6.12606H21.768C22.4507 6.12606 23 6.49359 23 6.95042V8.04958C23 8.50641 22.4507 8.87394 21.768 8.87394H7.01473L13.2004 12.8172C13.7035 13.1366 13.7138 13.669 13.221 13.9953Z" fill="#D78080"/>
</svg>
