<svg width="51" height="49" viewBox="0 0 51 49" fill="none" xmlns="http://www.w3.org/2000/svg">
<path d="M17.5312 6.89062V25.2656C17.5312 28.2255 22.8831 30.625 29.4844 30.625C36.0857 30.625 41.4375 28.2255 41.4375 25.2656V6.89062H17.5312Z" fill="#C8CDED"/>
<path d="M17.5312 23.7344H29.4844V29.0938H17.5312V23.7344Z" fill="#E2E7F6"/>
<path d="M17.5312 29.0938H45.4219V47.4688H17.5312C10.9299 47.4688 5.57812 45.0693 5.57812 42.1094V23.7344C5.57812 26.6943 10.9299 29.0938 17.5312 29.0938Z" fill="#ED664C"/>
<path d="M17.5312 29.0938C24.1328 29.0938 29.4844 26.6943 29.4844 23.7344C29.4844 20.7745 24.1328 18.375 17.5312 18.375C10.9297 18.375 5.57812 20.7745 5.57812 23.7344C5.57812 26.6943 10.9297 29.0938 17.5312 29.0938Z" fill="#CFD6E8"/>
<path d="M17.5312 26.0312C20.1719 26.0312 22.3125 25.0029 22.3125 23.7344C22.3125 22.4658 20.1719 21.4375 17.5312 21.4375C14.8906 21.4375 12.75 22.4658 12.75 23.7344C12.75 25.0029 14.8906 26.0312 17.5312 26.0312Z" fill="#976947"/>
<path d="M29.4844 12.25C36.0859 12.25 41.4375 9.85053 41.4375 6.89062C41.4375 3.93072 36.0859 1.53125 29.4844 1.53125C22.8828 1.53125 17.5312 3.93072 17.5312 6.89062C17.5312 9.85053 22.8828 12.25 29.4844 12.25Z" fill="#E2E7F6"/>
<path d="M29.4844 9.1875C32.125 9.1875 34.2656 8.15915 34.2656 6.89062C34.2656 5.6221 32.125 4.59375 29.4844 4.59375C26.8438 4.59375 24.7031 5.6221 24.7031 6.89062C24.7031 8.15915 26.8438 9.1875 29.4844 9.1875Z" fill="#976947"/>
<path d="M24.7031 6.8906C24.7195 7.1274 24.7911 7.35763 24.9126 7.56424C25.0342 7.77086 25.2025 7.94856 25.4052 8.08421C26.212 8.31315 27.0494 8.42692 27.8906 8.42185C30.5315 8.42185 32.6719 7.39362 32.6719 6.12498C32.6555 5.88818 32.5839 5.65795 32.4624 5.45134C32.3408 5.24473 32.1725 5.06702 31.9698 4.93137C31.163 4.70243 30.3256 4.58866 29.4844 4.59373C26.8435 4.59373 24.7031 5.62196 24.7031 6.8906Z" fill="#C18E59"/>
<path d="M12.75 23.7344C12.7664 23.9712 12.838 24.2014 12.9595 24.408C13.081 24.6146 13.2494 24.7923 13.452 24.928C14.2588 25.1569 15.0963 25.2707 15.9375 25.2656C18.5783 25.2656 20.7188 24.2374 20.7188 22.9687C20.7024 22.7319 20.6308 22.5017 20.5092 22.2951C20.3877 22.0885 20.2194 21.9108 20.0167 21.7751C19.2099 21.5462 18.3725 21.4324 17.5312 21.4375C14.8904 21.4375 12.75 22.4657 12.75 23.7344Z" fill="#C18E59"/>
<path d="M27.0938 29.0938H28.6875V31.3906H27.0938V29.0938Z" fill="#CFD6E8"/>
<path d="M27.0938 32.9219H28.6875V34.4531H27.0938V32.9219Z" fill="#CFD6E8"/>
<path d="M27.0938 35.9844H28.6875V37.5156H27.0938V35.9844Z" fill="#CFD6E8"/>
<path d="M27.0938 39.0469H28.6875V40.5781H27.0938V39.0469Z" fill="#CFD6E8"/>
<path d="M27.0938 42.1094H28.6875V43.6406H27.0938V42.1094Z" fill="#CFD6E8"/>
<path d="M27.0938 45.1719H28.6875V47.4688H27.0938V45.1719Z" fill="#CFD6E8"/>
<path d="M17.5312 26.7969C20.7108 26.7969 23.1094 25.48 23.1094 23.7344C23.1094 21.9888 20.7108 20.6719 17.5312 20.6719C14.3517 20.6719 11.9531 21.9888 11.9531 23.7344C11.9531 25.48 14.3517 26.7969 17.5312 26.7969ZM17.5312 22.2031C19.9633 22.2031 21.5156 23.1104 21.5156 23.7344C21.5156 24.3584 19.9633 25.2656 17.5312 25.2656C15.0992 25.2656 13.5469 24.3584 13.5469 23.7344C13.5469 23.1104 15.0992 22.2031 17.5312 22.2031Z" fill="black"/>
<path d="M29.4844 9.95312C32.6639 9.95312 35.0625 8.63625 35.0625 6.89062C35.0625 5.145 32.6639 3.82812 29.4844 3.82812C26.3048 3.82812 23.9062 5.145 23.9062 6.89062C23.9062 8.63625 26.3048 9.95312 29.4844 9.95312ZM29.4844 5.35938C31.9164 5.35938 33.4688 6.26664 33.4688 6.89062C33.4688 7.51461 31.9164 8.42188 29.4844 8.42188C27.0523 8.42188 25.5 7.51461 25.5 6.89062C25.5 6.26664 27.0523 5.35938 29.4844 5.35938Z" fill="black"/>
<path d="M45.4219 28.3281H40.6024C41.0887 27.9614 41.4864 27.4976 41.7681 26.9689C42.0499 26.4402 42.2089 25.8591 42.2344 25.2656V6.89062C42.2344 3.45603 36.6339 0.765625 29.4844 0.765625C22.3348 0.765625 16.7344 3.45603 16.7344 6.89062V17.6278C9.97209 17.8207 4.78125 20.4292 4.78125 23.7344V42.1094C4.78125 45.544 10.3817 48.2344 17.5312 48.2344H45.4219C45.6332 48.2344 45.8359 48.1537 45.9854 48.0101C46.1348 47.8665 46.2188 47.6718 46.2188 47.4688V29.0938C46.2188 28.8907 46.1348 28.696 45.9854 28.5524C45.8359 28.4088 45.6332 28.3281 45.4219 28.3281ZM37.6627 28.3281H30.2812V23.7344C30.2812 20.4292 25.0904 17.8207 18.3281 17.6278V9.89494C20.4837 11.77 24.6234 13.0156 29.4844 13.0156C34.3453 13.0156 38.4891 11.77 40.6406 9.89417V25.2656C40.6406 26.3551 39.5537 27.4653 37.6627 28.3281ZM28.6875 28.3281H26.0291C26.9968 27.9356 27.8939 27.399 28.6875 26.7379V28.3281ZM29.4844 2.29688C36.0586 2.29688 40.6406 4.71778 40.6406 6.89062C40.6406 9.06347 36.0586 11.4844 29.4844 11.4844C22.9102 11.4844 18.3281 9.06347 18.3281 6.89062C18.3281 4.71778 22.9102 2.29688 29.4844 2.29688ZM17.5312 19.1406C24.1055 19.1406 28.6875 21.5615 28.6875 23.7344C28.6875 25.9072 24.1055 28.3281 17.5312 28.3281C10.957 28.3281 6.375 25.9072 6.375 23.7344C6.375 21.5615 10.957 19.1406 17.5312 19.1406ZM44.625 46.7031H28.6875V45.1719H27.0938V46.7031H17.5312C10.957 46.7031 6.375 44.2822 6.375 42.1094V26.7379C8.53055 28.6137 12.6703 29.8594 17.5312 29.8594H27.0938V31.3906H28.6875V29.8594H44.625V46.7031Z" fill="black"/>
<path d="M27.0938 32.9219H28.6875V34.4531H27.0938V32.9219Z" fill="black"/>
<path d="M27.0938 35.9844H28.6875V37.5156H27.0938V35.9844Z" fill="black"/>
<path d="M27.0938 39.0469H28.6875V40.5781H27.0938V39.0469Z" fill="black"/>
<path d="M27.0938 42.1094H28.6875V43.6406H27.0938V42.1094Z" fill="black"/>
</svg>
