<svg width="56" height="56" viewBox="0 0 56 56" fill="none" xmlns="http://www.w3.org/2000/svg">
<path d="M14.4828 14.9333C7.01931 14.9333 0.965515 17.444 0.965515 20.5333C0.965515 23.6227 7.01931 26.1334 14.4828 26.1334C21.9462 26.1334 28 23.6227 28 20.5333C28 17.444 21.9462 14.9333 14.4828 14.9333ZM14.4828 22.4C11.8179 22.4 9.65517 21.56 9.65517 20.5333C9.65517 19.5067 11.8179 18.6667 14.4828 18.6667C17.1476 18.6667 19.3103 19.5067 19.3103 20.5333C19.3103 21.56 17.1476 22.4 14.4828 22.4Z" fill="#F5F5F5"/>
<path d="M14.4828 14.9333C13.9932 14.9333 13.5105 14.9455 13.0345 14.9669C19.8172 15.2665 25.1035 17.6465 25.1035 20.5333C25.1035 23.4202 19.8172 25.8002 13.0345 26.0998C13.5105 26.1212 13.9932 26.1334 14.4828 26.1334C21.9462 26.1334 28 23.6227 28 20.5333C28 17.444 21.9462 14.9333 14.4828 14.9333Z" fill="#CFD8DC"/>
<path d="M14.4828 22.4C17.149 22.4 19.3104 21.5642 19.3104 20.5333C19.3104 19.5024 17.149 18.6666 14.4828 18.6666C11.8166 18.6666 9.65518 19.5024 9.65518 20.5333C9.65518 21.5642 11.8166 22.4 14.4828 22.4Z" fill="#707070"/>
<path d="M28 0.93335C20.5365 0.93335 14.4828 3.44402 14.4828 6.53335C14.4828 9.62268 20.5365 12.1334 28 12.1334C35.4634 12.1334 41.5172 9.62268 41.5172 6.53335C41.5172 3.44402 35.4634 0.93335 28 0.93335ZM28 8.40002C25.3352 8.40002 23.1724 7.56002 23.1724 6.53335C23.1724 5.50668 25.3352 4.66668 28 4.66668C30.6648 4.66668 32.8276 5.50668 32.8276 6.53335C32.8276 7.56002 30.6648 8.40002 28 8.40002Z" fill="#F5F5F5"/>
<path d="M28 0.93335C27.5105 0.93335 27.0277 0.945483 26.5517 0.96695C33.3345 1.26655 38.6207 3.64655 38.6207 6.53335C38.6207 9.42015 33.3345 11.8002 26.5517 12.0998C27.0277 12.1212 27.5105 12.1334 28 12.1334C35.4635 12.1334 41.5172 9.62268 41.5172 6.53335C41.5172 3.44402 35.4635 0.93335 28 0.93335Z" fill="#CFD8DC"/>
<path d="M28 8.39996C30.6662 8.39996 32.8276 7.56423 32.8276 6.53329C32.8276 5.50236 30.6662 4.66663 28 4.66663C25.3338 4.66663 23.1724 5.50236 23.1724 6.53329C23.1724 7.56423 25.3338 8.39996 28 8.39996Z" fill="#707070"/>
<path d="M28 20.5333C28 30.6133 14.4828 31.7333 14.4828 31.7333V48.5333C7.01931 48.5333 0.965515 46.0227 0.965515 42.9333V20.5333C0.965515 23.6227 7.01931 26.1333 14.4828 26.1333C21.9462 26.1333 28 23.6227 28 20.5333Z" fill="#ED664C"/>
<path d="M28 20.5333V43.8667C28 53.9466 14.4828 55.0666 14.4828 55.0666V31.7333C14.4828 31.7333 28 30.6133 28 20.5333Z" fill="#CFD8DC"/>
<path d="M25.1034 27.3672V43.8667C25.1034 50.9385 18.4539 53.5976 14.4828 54.557V55.0666C14.4828 55.0666 28 53.9466 28 43.8667V20.5333C28.0553 23.1008 27.0064 25.5753 25.1034 27.3672Z" fill="#9E9E9E"/>
<path d="M41.5172 14.9333C34.0538 14.9333 28 17.444 28 20.5333C28 23.6227 34.0538 26.1334 41.5172 26.1334C48.9807 26.1334 55.0345 23.6227 55.0345 20.5333C55.0345 17.444 48.9807 14.9333 41.5172 14.9333ZM41.5172 22.4C38.8524 22.4 36.6897 21.56 36.6897 20.5333C36.6897 19.5067 38.8524 18.6667 41.5172 18.6667C44.1821 18.6667 46.3448 19.5067 46.3448 20.5333C46.3448 21.56 44.1821 22.4 41.5172 22.4Z" fill="#F5F5F5"/>
<path d="M41.5172 14.9333C41.0277 14.9333 40.5449 14.9455 40.0689 14.9669C46.8517 15.2665 52.1379 17.6465 52.1379 20.5333C52.1379 23.4202 46.8517 25.8002 40.0689 26.0998C40.5449 26.1212 41.0277 26.1334 41.5172 26.1334C48.9807 26.1334 55.0345 23.6227 55.0345 20.5333C55.0345 17.444 48.9807 14.9333 41.5172 14.9333Z" fill="#CFD8DC"/>
<path d="M55.0345 20.5333C55.0345 30.6133 41.5172 31.7333 41.5172 31.7333V48.5333C34.0538 48.5333 28 46.0227 28 42.9333V20.5333C28 23.6227 34.0538 26.1333 41.5172 26.1333C48.9807 26.1333 55.0345 23.6227 55.0345 20.5333Z" fill="#ED664C"/>
<path d="M41.5172 22.4C44.1834 22.4 46.3448 21.5642 46.3448 20.5333C46.3448 19.5024 44.1834 18.6666 41.5172 18.6666C38.851 18.6666 36.6896 19.5024 36.6896 20.5333C36.6896 21.5642 38.851 22.4 41.5172 22.4Z" fill="#707070"/>
<path d="M55.0345 20.5333V43.8667C55.0345 53.9466 41.5172 55.0666 41.5172 55.0666V31.7333C41.5172 31.7333 55.0345 30.6133 55.0345 20.5333Z" fill="#CFD8DC"/>
<path d="M52.1379 27.3672V43.8667C52.1379 50.9385 45.4884 53.5976 41.5172 54.557V55.0666C41.5172 55.0666 55.0345 53.9466 55.0345 43.8667V20.5333C55.0897 23.1008 54.0409 25.5753 52.1379 27.3672Z" fill="#9E9E9E"/>
<path d="M41.5172 6.53333V14.9333C34.0538 14.9333 28 17.444 28 20.5333C28 17.444 21.9462 14.9333 14.4828 14.9333V6.53333C14.4828 9.62266 20.5365 12.1333 28 12.1333C35.4634 12.1333 41.5172 9.62266 41.5172 6.53333Z" fill="#ED664C"/>
<path d="M13.5172 49.4461V55.0667C13.5172 55.5821 13.9495 56 14.4828 56H14.5648C14.6981 55.9879 26.9292 54.8613 28.7357 46.1067C30.9931 48.0237 35.3148 49.3043 40.5517 49.4461V55.0667C40.5517 55.5821 40.984 56 41.5172 56H41.5993C41.7432 55.9841 56 54.6784 56 43.8667V20.5333C56 16.9559 50.2513 14.2315 42.4828 14.0205V6.53333C42.4828 2.8084 36.2571 0 28 0C19.7429 0 13.5172 2.8084 13.5172 6.53333V14.0205C5.74869 14.2315 0 16.9559 0 20.5333V42.9333C0 46.5108 5.74869 49.2352 13.5172 49.4461ZM1.93103 42.9333V23.8775C4.38731 25.8141 8.97931 27.0667 14.4828 27.0667C19.3441 27.0667 23.4891 26.0885 26.0854 24.5271C23.2265 29.9796 14.8274 30.7673 14.4026 30.8037C13.9024 30.844 13.5175 31.2481 13.5172 31.7333V47.5804C6.64469 47.3769 1.93103 45.0427 1.93103 42.9333ZM15.4483 14.0205V9.87747C17.9046 11.8141 22.4966 13.0667 28 13.0667C33.5034 13.0667 38.0954 11.8141 40.5517 9.87747V14.0205C34.6621 14.1801 29.9397 15.7864 28 18.116C26.0603 15.7864 21.3379 14.1801 15.4483 14.0205V14.0205ZM15.4483 54.0027V32.5491C17.7346 32.1953 23.8782 30.8691 27.0345 26.5944V43.8667C27.0345 51.5023 18.4964 53.5248 15.4483 54.0027ZM28.9655 42.9333V23.8775C31.4218 25.8141 36.0138 27.0667 41.5172 27.0667C46.3786 27.0667 50.5236 26.0885 53.1199 24.5271C50.261 29.9796 41.8619 30.7673 41.4371 30.8037C40.9369 30.844 40.552 31.2481 40.5517 31.7333V47.5804C33.6792 47.3769 28.9655 45.0427 28.9655 42.9333V42.9333ZM54.069 43.8667C54.069 51.5023 45.5309 53.5248 42.4828 54.0027V32.5491C44.7691 32.1953 50.9127 30.8691 54.069 26.5944V43.8667ZM54.069 20.5333C54.069 22.7407 48.9141 25.2 41.5172 25.2C34.1204 25.2 28.9655 22.7407 28.9655 20.5333C28.9655 18.326 34.1204 15.8667 41.5172 15.8667C48.9141 15.8667 54.069 18.326 54.069 20.5333ZM28 1.86667C35.3968 1.86667 40.5517 4.326 40.5517 6.53333C40.5517 8.74067 35.3968 11.2 28 11.2C20.6032 11.2 15.4483 8.74067 15.4483 6.53333C15.4483 4.326 20.6032 1.86667 28 1.86667ZM14.4828 15.8667C21.8796 15.8667 27.0345 18.326 27.0345 20.5333C27.0345 22.7407 21.8796 25.2 14.4828 25.2C7.08593 25.2 1.93103 22.7407 1.93103 20.5333C1.93103 18.326 7.08593 15.8667 14.4828 15.8667Z" fill="black"/>
<path d="M14.4828 23.3333C17.2731 23.3333 20.2759 22.4569 20.2759 20.5333C20.2759 18.6097 17.2731 17.7333 14.4828 17.7333C11.6924 17.7333 8.68967 18.6097 8.68967 20.5333C8.68967 22.4569 11.6924 23.3333 14.4828 23.3333ZM14.4828 19.5999C16.7498 19.5999 18.0726 20.2281 18.3207 20.5333C18.0726 20.8385 16.7498 21.4666 14.4828 21.4666C12.2157 21.4666 10.893 20.8385 10.6448 20.5333C10.893 20.2281 12.2157 19.5999 14.4828 19.5999V19.5999Z" fill="black"/>
<path d="M28 9.33328C30.7904 9.33328 33.7931 8.45688 33.7931 6.53328C33.7931 4.60968 30.7904 3.73328 28 3.73328C25.2097 3.73328 22.2069 4.60968 22.2069 6.53328C22.2069 8.45688 25.2097 9.33328 28 9.33328ZM28 5.59994C30.267 5.59994 31.5898 6.22808 31.8379 6.53328C31.5898 6.83848 30.267 7.46661 28 7.46661C25.733 7.46661 24.4102 6.83848 24.1621 6.53328C24.4102 6.22808 25.733 5.59994 28 5.59994Z" fill="black"/>
<path d="M35.7242 20.5333C35.7242 22.4569 38.7269 23.3333 41.5173 23.3333C44.3076 23.3333 47.3104 22.4569 47.3104 20.5333C47.3104 18.6097 44.3076 17.7333 41.5173 17.7333C38.7269 17.7333 35.7242 18.6097 35.7242 20.5333ZM41.5173 21.4666C39.2502 21.4666 37.9275 20.8385 37.6793 20.5333C37.9275 20.2281 39.2502 19.5999 41.5173 19.5999C43.7843 19.5999 45.107 20.2281 45.3552 20.5333C45.107 20.8385 43.7843 21.4666 41.5173 21.4666Z" fill="black"/>
</svg>
