<svg width="32" height="30" viewBox="0 0 32 30" fill="none" xmlns="http://www.w3.org/2000/svg">
<path d="M21.6454 4.6662V7.59014C18.5434 8.01651 15.417 8.27637 12.282 8.36839C17.5474 8.16626 21.6454 6.5857 21.6454 4.6662Z" fill="#BBBBCD"/>
<path d="M31.375 5.34614V26.2963C31.375 26.2963 28.888 26.9653 25.2936 27.6449C25.1061 27.6792 24.9186 27.716 24.7248 27.748C20.8143 28.4661 15.7454 29.1574 11.1351 29.0446C5.3335 28.9033 0.625 27.3774 0.625 25.3218V4.6662L11.1351 8.39004C13.4193 8.30273 22.6817 7.46192 24.3167 7.16423C24.4536 7.13982 24.5875 7.11507 24.7248 7.08792C24.9153 7.05526 25.1027 7.01676 25.2936 6.97861C27.3652 6.58489 29.3989 6.03897 31.375 5.34614Z" fill="#FFD037"/>
<path d="M21.6452 4.66619C21.6452 6.58569 17.5472 8.16625 12.2819 8.36838C12.2192 8.37113 12.1566 8.37353 12.1 8.37353L11.8142 8.38178C11.3762 8.39003 11.1351 8.39003 11.1351 8.39003C5.3305 8.39003 0.625 6.72216 0.625 4.66619C0.625 2.61022 5.3305 0.942688 11.1351 0.942688C16.9397 0.942688 21.6452 2.61056 21.6452 4.66619Z" fill="#FFD037"/>
<path d="M11.1356 6.25193C13.9001 6.25193 16.1411 5.54213 16.1411 4.66655C16.1411 3.79097 13.9001 3.08118 11.1356 3.08118C8.37117 3.08118 6.13013 3.79097 6.13013 4.66655C6.13013 5.54213 8.37117 6.25193 11.1356 6.25193Z" fill="#828A9E"/>
<path d="M25.2935 6.97864V7.57917H24.7246V7.08795C24.9151 7.05529 25.1026 7.01679 25.2935 6.97864Z" fill="#FFD037"/>
<path d="M24.7253 8.48285H25.2946V9.46735H24.7253V8.48285Z" fill="#FFD037"/>
<path d="M24.7253 10.3698H25.2946V11.3543H24.7253V10.3698Z" fill="#FFD037"/>
<path d="M24.7253 12.2565H25.2946V13.241H24.7253V12.2565Z" fill="#FFD037"/>
<path d="M24.7253 14.1434H25.2946V15.1279H24.7253V14.1434Z" fill="#FFD037"/>
<path d="M24.7253 16.0299H25.2946V17.0144H24.7253V16.0299Z" fill="#FFD037"/>
<path d="M24.7253 17.9167H25.2946V18.9012H24.7253V17.9167Z" fill="#FFD037"/>
<path d="M24.7253 19.8036H25.2946V20.7881H24.7253V19.8036Z" fill="#FFD037"/>
<path d="M24.7253 21.6904H25.2946V22.6749H24.7253V21.6904Z" fill="#FFD037"/>
<path d="M24.7253 23.5773H25.2946V24.5618H24.7253V23.5773Z" fill="#FFD037"/>
<path d="M24.7253 25.4641H25.2946V26.4486H24.7253V25.4641Z" fill="#FFD037"/>
<path d="M25.2935 27.3503V27.6449C25.106 27.6793 24.9185 27.7161 24.7246 27.7481V27.3503H25.2935Z" fill="#FFD037"/>
</svg>
