<svg width="32" height="30" viewBox="0 0 32 30" fill="none" xmlns="http://www.w3.org/2000/svg">
<path d="M21.6452 4.66617V7.59011C18.5433 8.01648 15.4169 8.27634 12.2819 8.36836C17.5472 8.16623 21.6452 6.58567 21.6452 4.66617Z" fill="#BBBBCD"/>
<path d="M31.375 5.34611V26.2963C31.375 26.2963 28.888 26.9652 25.2936 27.6448C25.1061 27.6792 24.9186 27.716 24.7248 27.748C20.8143 28.4661 15.7454 29.1573 11.1351 29.0446C5.3335 28.9033 0.625 27.3774 0.625 25.3218V4.66617L11.1351 8.39001C13.4193 8.3027 22.6817 7.46189 24.3167 7.1642C24.4536 7.1398 24.5875 7.11505 24.7248 7.08789C24.9153 7.05523 25.1028 7.01673 25.2936 6.97858C27.3652 6.58486 29.3989 6.03894 31.375 5.34611Z" fill="#2DDA49"/>
<path d="M21.6452 4.66619C21.6452 6.58569 17.5472 8.16625 12.2819 8.36838C12.2192 8.37113 12.1566 8.37354 12.1 8.37354L11.8142 8.38179C11.3762 8.39004 11.1351 8.39004 11.1351 8.39004C5.3305 8.39004 0.625 6.72216 0.625 4.66619C0.625 2.61022 5.3305 0.942688 11.1351 0.942688C16.9397 0.942688 21.6452 2.61056 21.6452 4.66619Z" fill="#2DDA49"/>
<path d="M11.1355 6.2519C13.9 6.2519 16.141 5.5421 16.141 4.66652C16.141 3.79094 13.9 3.08115 11.1355 3.08115C8.37104 3.08115 6.13 3.79094 6.13 4.66652C6.13 5.5421 8.37104 6.2519 11.1355 6.2519Z" fill="#828A9E"/>
<path d="M25.2936 6.97864V7.57917H24.7247V7.08795C24.9152 7.05529 25.1027 7.01679 25.2936 6.97864Z" fill="#EEEFEE"/>
<path d="M24.7255 8.48285H25.2947V9.46735H24.7255V8.48285Z" fill="#EEEFEE"/>
<path d="M24.7255 10.3698H25.2947V11.3543H24.7255V10.3698Z" fill="#EEEFEE"/>
<path d="M24.7255 12.2565H25.2947V13.241H24.7255V12.2565Z" fill="#EEEFEE"/>
<path d="M24.7255 14.1434H25.2947V15.1279H24.7255V14.1434Z" fill="#EEEFEE"/>
<path d="M24.7255 16.0299H25.2947V17.0144H24.7255V16.0299Z" fill="#EEEFEE"/>
<path d="M24.7255 17.9167H25.2947V18.9012H24.7255V17.9167Z" fill="#EEEFEE"/>
<path d="M24.7255 19.8036H25.2947V20.7881H24.7255V19.8036Z" fill="#EEEFEE"/>
<path d="M24.7255 21.6905H25.2947V22.675H24.7255V21.6905Z" fill="#EEEFEE"/>
<path d="M24.7255 23.5773H25.2947V24.5618H24.7255V23.5773Z" fill="#EEEFEE"/>
<path d="M24.7255 25.4641H25.2947V26.4486H24.7255V25.4641Z" fill="#EEEFEE"/>
<path d="M25.2936 27.3503V27.6449C25.1061 27.6793 24.9186 27.7161 24.7247 27.7481V27.3503H25.2936Z" fill="#EEEFEE"/>
</svg>
