<svg width="31" height="29" viewBox="0 0 31 29" fill="none" xmlns="http://www.w3.org/2000/svg">
<path d="M21.0204 3.72351V6.64745C17.9184 7.07382 14.792 7.33368 11.657 7.4257C16.9224 7.22357 21.0204 5.64301 21.0204 3.72351Z" fill="#BBBBCD"/>
<path d="M30.75 4.40345V25.3536C30.75 25.3536 28.263 26.0226 24.6686 26.7022C24.4811 26.7365 24.2936 26.7733 24.0998 26.8053C20.1892 27.5234 15.1204 28.2147 10.5101 28.1019C4.7085 27.9606 0 26.4347 0 24.3791V3.72351L10.5101 7.44736C12.7943 7.36004 22.0568 6.51923 23.6917 6.22154C23.8286 6.19714 23.9625 6.17239 24.0998 6.14523C24.2902 6.11257 24.4777 6.07407 24.6686 6.03592C26.7402 5.6422 28.7739 5.09628 30.75 4.40345Z" fill="#F04141" fill-opacity="0.89"/>
<path d="M21.0202 3.7235C21.0202 5.643 16.9222 7.22356 11.6569 7.42569C11.5942 7.42844 11.5316 7.43084 11.475 7.43084L11.1892 7.43909C10.7512 7.44734 10.5101 7.44734 10.5101 7.44734C4.7055 7.44734 0 5.77947 0 3.7235C0 1.66753 4.7055 0 10.5101 0C16.3147 0 21.0202 1.66787 21.0202 3.7235Z" fill="#F25048"/>
<path d="M10.5106 5.30924C13.2751 5.30924 15.5161 4.59944 15.5161 3.72386C15.5161 2.84828 13.2751 2.13849 10.5106 2.13849C7.74617 2.13849 5.50513 2.84828 5.50513 3.72386C5.50513 4.59944 7.74617 5.30924 10.5106 5.30924Z" fill="#828A9E"/>
<path d="M24.6685 6.03595V6.63648H24.0996V6.14526C24.2901 6.11261 24.4776 6.07411 24.6685 6.03595Z" fill="#DBD8DD"/>
<path d="M24.1003 7.54016H24.6696V8.52466H24.1003V7.54016Z" fill="#DBD8DD"/>
<path d="M24.1003 9.42706H24.6696V10.4116H24.1003V9.42706Z" fill="#DBD8DD"/>
<path d="M24.1003 11.3138H24.6696V12.2983H24.1003V11.3138Z" fill="#DBD8DD"/>
<path d="M24.1003 13.2007H24.6696V14.1852H24.1003V13.2007Z" fill="#DBD8DD"/>
<path d="M24.1003 15.0872H24.6696V16.0717H24.1003V15.0872Z" fill="#DBD8DD"/>
<path d="M24.1003 16.9741H24.6696V17.9586H24.1003V16.9741Z" fill="#DBD8DD"/>
<path d="M24.1003 18.861H24.6696V19.8455H24.1003V18.861Z" fill="#DBD8DD"/>
<path d="M24.1003 20.7477H24.6696V21.7322H24.1003V20.7477Z" fill="#DBD8DD"/>
<path d="M24.1003 22.6346H24.6696V23.6191H24.1003V22.6346Z" fill="#DBD8DD"/>
<path d="M24.1003 24.5215H24.6696V25.506H24.1003V24.5215Z" fill="#DBD8DD"/>
<path d="M24.6685 26.4077V26.7023C24.481 26.7366 24.2935 26.7734 24.0996 26.8054V26.4077H24.6685Z" fill="#DBD8DD"/>
</svg>
