<svg width="39" height="37" viewBox="0 0 39 37" fill="none" xmlns="http://www.w3.org/2000/svg">
<g filter="url(#filter0_d)">
<path d="M25.297 4.6662V7.59014C22.2254 8.01651 19.1295 8.27637 16.0251 8.36839C21.2391 8.16626 25.297 6.5857 25.297 4.6662Z" fill="#BBBBCD"/>
<path d="M34.9317 5.34614V26.2963C34.9317 26.2963 32.469 26.9653 28.9097 27.6449C28.7241 27.6792 28.5384 27.716 28.3464 27.748C24.4741 28.4661 19.4548 29.1574 14.8896 29.0446C9.14467 28.9033 4.48218 27.3774 4.48218 25.3218V4.6662L14.8896 8.39004C17.1514 8.30273 26.3234 7.46192 27.9424 7.16423C28.0779 7.13982 28.2105 7.11507 28.3464 7.08792C28.5351 7.05526 28.7207 7.01676 28.9097 6.97861C30.9611 6.58489 32.9749 6.03897 34.9317 5.34614Z" fill="#2DDA49"/>
<path d="M25.297 4.66619C25.297 6.58569 21.2391 8.16625 16.0251 8.36838C15.9631 8.37113 15.9011 8.37353 15.845 8.37353L15.5621 8.38178C15.1284 8.39003 14.8896 8.39003 14.8896 8.39003C9.1417 8.39003 4.48218 6.72216 4.48218 4.66619C4.48218 2.61022 9.1417 0.942688 14.8896 0.942688C20.6375 0.942688 25.297 2.61056 25.297 4.66619Z" fill="#2DDA49"/>
<path d="M14.8899 6.25193C17.6274 6.25193 19.8465 5.54213 19.8465 4.66655C19.8465 3.79097 17.6274 3.08118 14.8899 3.08118C12.1525 3.08118 9.93335 3.79097 9.93335 4.66655C9.93335 5.54213 12.1525 6.25193 14.8899 6.25193Z" fill="#828A9E"/>
<path d="M28.9098 6.97864V7.57917H28.3464V7.08795C28.5351 7.05529 28.7207 7.01679 28.9098 6.97864Z" fill="#DBD8DD"/>
<path d="M28.3472 8.48285H28.9109V9.46735H28.3472V8.48285Z" fill="#DBD8DD"/>
<path d="M28.3472 10.3698H28.9109V11.3543H28.3472V10.3698Z" fill="#DBD8DD"/>
<path d="M28.3472 12.2565H28.9109V13.241H28.3472V12.2565Z" fill="#DBD8DD"/>
<path d="M28.3472 14.1434H28.9109V15.1279H28.3472V14.1434Z" fill="#DBD8DD"/>
<path d="M28.3472 16.0299H28.9109V17.0144H28.3472V16.0299Z" fill="#DBD8DD"/>
<path d="M28.3472 17.9167H28.9109V18.9012H28.3472V17.9167Z" fill="#DBD8DD"/>
<path d="M28.3472 19.8036H28.9109V20.7881H28.3472V19.8036Z" fill="#DBD8DD"/>
<path d="M28.3472 21.6904H28.9109V22.6749H28.3472V21.6904Z" fill="#DBD8DD"/>
<path d="M28.3472 23.5773H28.9109V24.5618H28.3472V23.5773Z" fill="#DBD8DD"/>
<path d="M28.3472 25.4641H28.9109V26.4486H28.3472V25.4641Z" fill="#DBD8DD"/>
<path d="M28.9098 27.3503V27.6449C28.7241 27.6793 28.5384 27.7161 28.3464 27.7481V27.3503H28.9098Z" fill="#DBD8DD"/>
</g>
<defs>
<filter id="filter0_d" x="0.482178" y="0.942688" width="38.4495" height="36.1141" filterUnits="userSpaceOnUse" color-interpolation-filters="sRGB">
<feFlood flood-opacity="0" result="BackgroundImageFix"/>
<feColorMatrix in="SourceAlpha" type="matrix" values="0 0 0 0 0 0 0 0 0 0 0 0 0 0 0 0 0 0 127 0" result="hardAlpha"/>
<feOffset dy="4"/>
<feGaussianBlur stdDeviation="2"/>
<feComposite in2="hardAlpha" operator="out"/>
<feColorMatrix type="matrix" values="0 0 0 0 0 0 0 0 0 0 0 0 0 0 0 0 0 0 0.25 0"/>
<feBlend mode="normal" in2="BackgroundImageFix" result="effect1_dropShadow"/>
<feBlend mode="normal" in="SourceGraphic" in2="effect1_dropShadow" result="shape"/>
</filter>
</defs>
</svg>
