<svg width="181" height="169" viewBox="0 0 181 169" fill="none" xmlns="http://www.w3.org/2000/svg">
<g clip-path="url(#clip0)">
<path d="M144.16 120.072C144.16 120.072 166.552 121.228 161.337 128.265C156.121 135.303 142.416 124.137 142.416 124.137L144.16 120.072Z" fill="#FFB8B8"/>
<path d="M102.895 53.0427L107.453 54.1803C107.453 54.1803 110.112 62.1432 112.011 69.3478C113.91 76.5524 117.708 98.1662 117.708 98.1662L147.154 118.769L143.642 126.612L104.415 111.177L95.6787 76.9316L102.895 53.0427Z" fill="#E74D89"/>
<path opacity="0.2" d="M107.184 67.1771L105.485 102.692L109.03 113.251L98.6458 105.649L107.184 67.1771Z" fill="black"/>
<path d="M113.34 130.208C113.34 130.208 118.278 143.479 119.037 152.58C119.797 161.68 120.557 168.885 120.557 168.885H97.3878L92.83 162.059V168.885H65.863C65.863 168.885 58.2667 144.238 61.3052 141.204C64.3438 138.17 93.2098 125.278 93.2098 125.278L113.34 130.208Z" fill="#A52057"/>
<path d="M157.487 168.539H23.4212V169H157.487V168.539Z" fill="#3F3D56"/>
<path d="M84.2841 38.6335C92.2553 38.6335 98.7172 32.1823 98.7172 24.2243C98.7172 16.2664 92.2553 9.81519 84.2841 9.81519C76.313 9.81519 69.8511 16.2664 69.8511 24.2243C69.8511 32.1823 76.313 38.6335 84.2841 38.6335Z" fill="#FFB8B8"/>
<path d="M73.2694 30.2914L72.13 46.9757L86.563 66.3143L93.7795 48.1132C93.7795 48.1132 87.3227 43.9422 91.1208 35.2208L73.2694 30.2914Z" fill="#FFB8B8"/>
<path d="M115.428 133.43C115.428 136.844 105.933 142.152 105.933 142.152V144.048L102.135 145.944L93.7792 129.261L91.5017 147.46C91.5017 147.46 74.7885 150.116 69.472 147.46C64.1532 144.806 61.495 145.944 53.8987 143.29C46.3024 140.636 56.9376 104.991 56.9376 104.991L49.3413 50.0092L65.9369 41.7251L66.8114 41.2874L69.0936 40.8682L72.5917 40.2231L84.2838 48.1133L85.2253 53.0432L85.8045 56.0771L88.8412 52.6631L91.1348 45.1323L107.453 54.1812L102.896 90.5817C102.896 90.5817 115.428 130.019 115.428 133.43Z" fill="#E74D89"/>
<path d="M59.5961 145.186C59.5961 145.186 77.0677 159.216 68.7117 161.87C60.3557 164.524 55.7979 147.461 55.7979 147.461L59.5961 145.186Z" fill="#FFB8B8"/>
<path d="M53.1392 50.7675L49.341 50.0092C49.341 50.0092 43.6438 53.0427 43.2639 59.1097C42.8841 65.1767 37.9465 107.646 37.9465 107.646L53.8988 150.494L66.8126 145.565L54.2786 105.371L63.774 70.4853L53.1392 50.7675Z" fill="#E74D89"/>
<path d="M85.9545 62.3392C86.7191 62.3392 87.339 61.7204 87.339 60.957C87.339 60.1937 86.7191 59.5748 85.9545 59.5748C85.1898 59.5748 84.57 60.1937 84.57 60.957C84.57 61.7204 85.1898 62.3392 85.9545 62.3392Z" fill="#2F2E41"/>
<path d="M85.9545 71.3237C86.7191 71.3237 87.339 70.7049 87.339 69.9415C87.339 69.1782 86.7191 68.5593 85.9545 68.5593C85.1898 68.5593 84.57 69.1782 84.57 69.9415C84.57 70.7049 85.1898 71.3237 85.9545 71.3237Z" fill="#2F2E41"/>
<path d="M93.8 130.528C94.5647 130.528 95.1845 129.91 95.1845 129.146C95.1845 128.383 94.5647 127.764 93.8 127.764C93.0354 127.764 92.4155 128.383 92.4155 129.146C92.4155 129.91 93.0354 130.528 93.8 130.528Z" fill="#2F2E41"/>
<path d="M72.0985 9.46286L69.4305 8.39649C69.4305 8.39649 75.0091 2.26493 82.7706 2.79813L80.5877 0.398807C80.5877 0.398807 85.9237 -1.73389 90.7747 3.86447C93.3247 6.8074 96.2752 10.2667 98.1144 14.1635H100.972L99.7792 16.7849L103.953 19.4064L99.669 18.9355C99.9243 20.3711 99.9635 21.8366 99.7852 23.2837C99.6015 24.7312 98.8616 26.0508 97.7217 26.9641C97.7217 26.9641 94.4128 20.1264 94.4128 19.06V21.7259C94.4128 21.7259 91.7448 19.3266 91.7448 17.7271L90.2895 19.5932H80.5877L82.0429 17.194L76.4643 17.9937L78.6473 15.0612L70.0101 27.1705C70.0101 27.1705 65.0646 13.4617 72.0985 9.46286Z" fill="#2F2E41"/>
<path d="M157.925 111.394C170.669 111.394 181 101.08 181 88.3568C181 75.6339 170.669 65.3199 157.925 65.3199C145.181 65.3199 134.85 75.6339 134.85 88.3568C134.85 101.08 145.181 111.394 157.925 111.394Z" fill="#3F3D56"/>
<path opacity="0.1" d="M157.925 108.168C168.885 108.168 177.77 99.2985 177.77 88.3568C177.77 77.415 168.885 68.545 157.925 68.545C146.965 68.545 138.08 77.415 138.08 88.3568C138.08 99.2985 146.965 108.168 157.925 108.168Z" fill="black"/>
<path d="M156.974 100.047V97.1639C155.514 97.1355 154.004 96.6214 153.123 95.9077L153.727 93.9949C154.774 94.7782 156.043 95.2081 157.352 95.2224C159.139 95.2224 160.347 94.0519 160.347 92.4246C160.347 90.8543 159.366 89.8837 157.503 89.0271C154.935 87.8852 153.349 86.5718 153.349 84.088C153.349 81.7183 154.834 79.9197 157.15 79.4914V76.6079H158.711V79.3773C159.875 79.3931 161.01 79.7397 161.984 80.3765L161.354 82.2608C160.42 81.6227 159.314 81.284 158.182 81.2901C156.244 81.2901 155.514 82.6033 155.514 83.7454C155.514 85.23 156.445 85.9722 158.636 87.0001C161.228 88.1992 162.537 89.6838 162.537 92.2247C162.537 94.4801 161.153 96.5929 158.56 97.078V100.047H156.974Z" fill="#FEB276"/>
<path opacity="0.2" d="M57.6887 116.306L66.9176 145.087L59.5336 115.139L57.6887 116.306Z" fill="black"/>
<path d="M10.636 60.0809H4.77805C4.52273 60.0806 4.27796 59.9793 4.09742 59.799C3.91688 59.6188 3.81533 59.3744 3.81505 59.1195V50.7126C3.81533 50.4577 3.91688 50.2134 4.09742 50.0331C4.27796 49.8529 4.52273 49.7515 4.77805 49.7512H10.636C10.8914 49.7515 11.1361 49.8529 11.3167 50.0331C11.4972 50.2134 11.5988 50.4577 11.599 50.7126V59.1195C11.5988 59.3744 11.4972 59.6188 11.3167 59.799C11.1361 59.9793 10.8914 60.0806 10.636 60.0809ZM4.77805 50.212C4.64509 50.2121 4.51763 50.2649 4.42361 50.3588C4.3296 50.4526 4.27671 50.5799 4.27655 50.7126V59.1195C4.27671 59.2523 4.3296 59.3795 4.42361 59.4734C4.51763 59.5672 4.64509 59.62 4.77805 59.6202H10.636C10.769 59.62 10.8965 59.5672 10.9905 59.4734C11.0845 59.3795 11.1374 59.2523 11.1375 59.1195V50.7126C11.1374 50.5799 11.0845 50.4526 10.9905 50.3588C10.8965 50.2649 10.769 50.2121 10.636 50.212H4.77805Z" fill="#3F3D56"/>
<path d="M21.3358 60.0809H16.0457C15.7151 60.0805 15.3982 59.9492 15.1644 59.7158C14.9307 59.4825 14.7992 59.1661 14.7988 58.836V41.858C14.7992 41.528 14.9307 41.2116 15.1644 40.9782C15.3982 40.7448 15.7151 40.6135 16.0457 40.6132H21.3358C21.6664 40.6135 21.9834 40.7448 22.2171 40.9782C22.4509 41.2116 22.5824 41.528 22.5828 41.858V58.836C22.5824 59.1661 22.4509 59.4825 22.2171 59.7158C21.9834 59.9492 21.6664 60.0805 21.3358 60.0809ZM16.0457 41.0739C15.8375 41.0741 15.6378 41.1568 15.4906 41.3038C15.3433 41.4508 15.2605 41.6501 15.2603 41.858V58.836C15.2605 59.0439 15.3433 59.2432 15.4906 59.3902C15.6378 59.5372 15.8375 59.6199 16.0457 59.6201H21.3358C21.5441 59.6199 21.7437 59.5372 21.891 59.3902C22.0382 59.2432 22.121 59.0439 22.1213 58.836V41.858C22.121 41.6501 22.0382 41.4508 21.891 41.3038C21.7437 41.1568 21.5441 41.0741 21.3358 41.0739L16.0457 41.0739Z" fill="#3F3D56"/>
<path d="M32.1153 60.0809H27.2337C26.849 60.0805 26.4801 59.9277 26.208 59.6561C25.936 59.3845 25.783 59.0162 25.7825 58.6321V33.6551C25.783 33.271 25.936 32.9027 26.208 32.6311C26.4801 32.3595 26.849 32.2067 27.2337 32.2063H32.1153C32.5001 32.2067 32.8689 32.3595 33.141 32.6311C33.413 32.9027 33.5661 33.271 33.5665 33.6551V58.6321C33.5661 59.0162 33.413 59.3845 33.141 59.6561C32.8689 59.9277 32.5001 60.0805 32.1153 60.0809ZM27.2337 32.667C26.9713 32.6673 26.7198 32.7715 26.5342 32.9568C26.3487 33.142 26.2443 33.3931 26.244 33.6551V58.6321C26.2443 58.8941 26.3487 59.1452 26.5342 59.3304C26.7198 59.5157 26.9713 59.6199 27.2337 59.6202H32.1153C32.3777 59.6199 32.6293 59.5157 32.8148 59.3304C33.0003 59.1452 33.1047 58.8941 33.105 58.6321V33.6551C33.1047 33.3931 33.0003 33.142 32.8148 32.9568C32.6293 32.7715 32.3777 32.6673 32.1153 32.667H27.2337Z" fill="#3F3D56"/>
<path d="M9.9038 51.3522H5.51031V58.4798H9.9038V51.3522Z" fill="#FEB276"/>
<path d="M20.8875 42.3057H16.494V58.4799H20.8875V42.3057Z" fill="#FEB276"/>
<path d="M31.8712 33.8988H27.4777V58.4799H31.8712V33.8988Z" fill="#FEB276"/>
<path d="M166.832 33.5886H136.143C136.112 33.5886 136.082 33.5826 136.054 33.5711C136.026 33.5595 136.001 33.5425 135.979 33.5211C135.958 33.4997 135.941 33.4743 135.929 33.4464C135.918 33.4184 135.912 33.3885 135.912 33.3582V2.25844C135.912 2.19735 135.936 2.13875 135.98 2.09555C136.023 2.05235 136.081 2.02808 136.143 2.02808C136.204 2.02808 136.263 2.05235 136.306 2.09555C136.349 2.13875 136.373 2.19735 136.373 2.25844V33.1278H166.832C166.894 33.1278 166.952 33.1521 166.996 33.1953C167.039 33.2385 167.063 33.2971 167.063 33.3582C167.063 33.4193 167.039 33.4779 166.996 33.5211C166.952 33.5643 166.894 33.5886 166.832 33.5886Z" fill="#3F3D56"/>
<path d="M36.6893 63.3061H0.23075C0.200446 63.3061 0.170437 63.3002 0.142437 63.2886C0.114438 63.277 0.0889961 63.2601 0.0675674 63.2387C0.0461387 63.2173 0.029142 63.1919 0.0175485 63.1639C0.00595503 63.136 -7.87451e-06 63.106 7.80446e-09 63.0757V26.9079C7.80446e-09 26.8468 0.024311 26.7882 0.067585 26.745C0.110859 26.7018 0.169552 26.6775 0.23075 26.6775C0.291949 26.6775 0.350642 26.7018 0.393916 26.745C0.43719 26.7882 0.461501 26.8468 0.461501 26.9079V62.8454H36.6893C36.7505 62.8454 36.8092 62.8697 36.8525 62.9129C36.8957 62.9561 36.9201 63.0147 36.9201 63.0757C36.9201 63.1368 36.8957 63.1954 36.8525 63.2386C36.8092 63.2818 36.7505 63.3061 36.6893 63.3061Z" fill="#3F3D56"/>
<path d="M146.734 30.7014H140.876C140.62 30.7011 140.376 30.5998 140.195 30.4195C140.015 30.2393 139.913 29.9949 139.913 29.74V21.3331C139.913 21.0782 140.015 20.8338 140.195 20.6536C140.376 20.4733 140.62 20.372 140.876 20.3717H146.734C146.989 20.372 147.234 20.4734 147.414 20.6536C147.595 20.8339 147.696 21.0782 147.697 21.3331V29.74C147.696 29.9949 147.595 30.2392 147.414 30.4195C147.234 30.5997 146.989 30.7011 146.734 30.7014ZM140.876 20.8324C140.743 20.8326 140.615 20.8854 140.521 20.9793C140.427 21.0731 140.374 21.2004 140.374 21.3331V29.74C140.374 29.8728 140.427 30 140.521 30.0939C140.615 30.1877 140.743 30.2405 140.876 30.2407H146.734C146.867 30.2405 146.994 30.1877 147.088 30.0938C147.182 30 147.235 29.8727 147.235 29.74V21.3331C147.235 21.2004 147.182 21.0731 147.088 20.9793C146.994 20.8854 146.867 20.8326 146.734 20.8324H140.876Z" fill="#3F3D56"/>
<path d="M158.73 30.7014H153.339C153.021 30.701 152.717 30.575 152.493 30.3512C152.269 30.1273 152.143 29.8237 152.142 29.5071V14.2798C152.143 13.9632 152.269 13.6597 152.493 13.4358C152.717 13.212 153.021 13.086 153.339 13.0857H158.73C159.047 13.086 159.351 13.212 159.576 13.4358C159.8 13.6597 159.926 13.9632 159.926 14.2798V29.5071C159.926 29.8237 159.8 30.1273 159.576 30.3512C159.351 30.575 159.047 30.701 158.73 30.7014ZM153.339 13.5464C153.144 13.5466 152.957 13.624 152.819 13.7615C152.682 13.899 152.604 14.0854 152.604 14.2798V29.5071C152.604 29.7016 152.682 29.888 152.819 30.0255C152.957 30.1631 153.144 30.2404 153.339 30.2406H158.73C158.925 30.2404 159.112 30.1631 159.25 30.0255C159.387 29.888 159.465 29.7016 159.465 29.5071V14.2798C159.465 14.0854 159.387 13.899 159.25 13.7615C159.112 13.624 158.925 13.5466 158.73 13.5464H153.339Z" fill="#3F3D56"/>
<path d="M145.896 22.0525H141.503V29.1801H145.896V22.0525Z" fill="#FEB276"/>
<path d="M158.231 14.9982H153.838V28.7889H158.231V14.9982Z" fill="#FEB276"/>
<path d="M143.757 17.9235C144.904 17.9235 145.834 16.9952 145.834 15.8502C145.834 14.7051 144.904 13.7769 143.757 13.7769C142.61 13.7769 141.681 14.7051 141.681 15.8502C141.681 16.9952 142.61 17.9235 143.757 17.9235Z" fill="#FEB276"/>
<path d="M155.987 10.091C157.134 10.091 158.064 9.16272 158.064 8.01765C158.064 6.87259 157.134 5.94434 155.987 5.94434C154.84 5.94434 153.91 6.87259 153.91 8.01765C153.91 9.16272 154.84 10.091 155.987 10.091Z" fill="#FEB276"/>
</g>
<defs>
<clipPath id="clip0">
<rect width="181" height="169" fill="white"/>
</clipPath>
</defs>
</svg>
