<svg width="174" height="133" viewBox="0 0 174 133" fill="none" xmlns="http://www.w3.org/2000/svg">
<g clip-path="url(#clip0)">
<path d="M37.7711 83.1146L40.7422 84.6766C41.0428 84.8346 41.3775 84.9308 41.7229 84.9583C42.0684 84.9859 42.4162 84.9441 42.7422 84.8361C43.0682 84.728 43.3645 84.5562 43.6104 84.3326C43.8564 84.109 44.0461 83.839 44.1663 83.5414V83.5414C44.2956 83.2212 44.341 82.8776 44.2987 82.5384C44.2564 82.1992 44.1277 81.8738 43.9229 81.5884C43.7181 81.303 43.4429 81.0656 43.1195 80.8952C42.7961 80.7249 42.4335 80.6264 42.0609 80.6076L38.4629 80.4266L27.6245 77.4253L25.8771 71.4397L21.3079 73.7878L24.4497 80.5928L37.7711 83.1146Z" fill="#FFB8B8"/>
<path d="M23.6052 52.0481C22.9179 52.7609 23.042 53.6184 23.5425 54.3145C24.0431 55.0106 24.8761 55.5898 25.6051 56.204C26.0735 56.5986 26.5067 57.0174 26.7165 57.4921C26.8321 57.7348 26.8699 58.0026 26.8255 58.2642C26.7812 58.5259 26.6565 58.7706 26.466 58.9699C25.9886 59.4865 25.0994 59.8364 24.2318 60.1363C21.7507 60.9879 19.1907 61.6329 16.5829 62.0633C18.7798 59.7148 19.8796 57.0699 19.7185 54.5222C19.6847 53.9875 19.5979 53.4479 19.802 52.912C19.9421 52.5903 20.1638 52.3037 20.4486 52.0756C20.7335 51.8476 21.0734 51.6847 21.4405 51.6003C22.3137 51.3709 23.464 51.5978 23.5979 52.1213" fill="#2F2E41"/>
<path d="M4.78381 127.414L7.92758 127.539L14.1325 101.317L8.7477 101.529L4.78381 127.414Z" fill="#FFB8B8"/>
<path d="M36.2207 121.787L33.6237 123.037L17.3791 100.987L22.5525 98.9031L36.2207 121.787Z" fill="#FFB8B8"/>
<path d="M18.1136 60.3019C20.8599 60.3019 23.0863 58.2651 23.0863 55.7525C23.0863 53.24 20.8599 51.2032 18.1136 51.2032C15.3673 51.2032 13.1409 53.24 13.1409 55.7525C13.1409 58.2651 15.3673 60.3019 18.1136 60.3019Z" fill="#FFB8B8"/>
<path d="M15.5818 58.1378C15.5818 58.1378 13.8049 61.514 11.3446 61.389C11.3446 61.389 6.69745 59.6383 5.19395 64.3901L3.55377 68.1415L25.2862 71.5178C25.2862 71.5178 24.0561 64.6402 21.1857 64.5152C21.1857 64.5152 17.9054 64.2651 18.3154 63.1397C18.7255 62.0142 20.229 59.3882 20.229 59.3882L15.5818 58.1378Z" fill="#FFB8B8"/>
<path d="M22.8258 75.3943L19.5454 81.8967L22.2489 92.4069L35.4155 115.013C35.4155 115.013 29.3518 119.991 27.8402 120.789C26.529 121.481 15.6133 102.711 15.2147 98.8423C15.0831 97.5655 12.6895 123.429 12.6895 123.429C12.6895 123.429 3.66596 122.067 1.14618 121.614C1.14618 121.614 2.96159 109.85 4.03202 98.8423C4.85713 90.3573 4.10686 82.6676 8.74757 79.0207L8.33753 71.7679L19.2721 71.3928L22.8258 75.3943Z" fill="#2F2E41"/>
<path d="M5.84239 132.237L10.8612 132.904C11.2501 133.036 11.679 133.032 12.0644 132.891C12.4498 132.75 12.764 132.483 12.9459 132.141V132.141C13.0936 131.864 13.1462 131.552 13.0966 131.247C13.0471 130.942 12.8978 130.658 12.6684 130.432L10.5382 128.333L9.00506 125.306C8.08813 124.45 7.46135 124.753 7.11094 126.16L4.66005 125.456L4.01744 129.408C3.92127 130 4.05006 130.603 4.38228 131.118C4.71449 131.633 5.22995 132.028 5.84239 132.237V132.237Z" fill="#2F2E41"/>
<path d="M34.4487 128.102L39.52 128.085C39.926 128.164 40.3496 128.102 40.7081 127.911C41.0666 127.719 41.3344 127.413 41.4594 127.051V127.051C41.5609 126.757 41.5628 126.441 41.4647 126.146C41.3667 125.851 41.1733 125.59 40.9101 125.397L38.4655 123.608L36.4622 120.821C35.4175 120.097 34.8462 120.481 34.7261 121.92L32.1886 121.554V125.549C32.1886 126.147 32.4131 126.727 32.8245 127.192C33.2359 127.656 33.8093 127.978 34.4487 128.102V128.102Z" fill="#2F2E41"/>
<path d="M15.6019 48.7593C14.7572 48.4216 13.7521 48.554 12.9366 48.9472C12.1212 49.3404 11.4696 49.9674 10.8994 50.63C8.9358 52.9227 7.79081 55.7126 7.61976 58.6211C7.57509 59.4161 7.617 60.2564 8.06942 60.9364C8.5666 61.6837 9.47662 62.1127 10.378 62.4047C13.4 63.3682 16.7156 63.2013 19.6039 61.9404C18.0852 60.8138 16.68 59.5649 15.4051 58.2087C15.1662 57.9545 14.9164 57.6282 15.0379 57.3119C15.1144 57.158 15.233 57.0248 15.3823 56.9251L18.31 54.5991L18.2363 55.5401C18.8185 55.5089 19.378 55.3224 19.8456 55.0035C20.3133 54.6846 20.6685 54.2474 20.8674 53.7458C20.7263 54.0064 20.9958 54.3266 21.3072 54.3852C21.6187 54.4438 21.934 54.3264 22.226 54.2114C22.9344 53.9325 23.7039 53.6004 24.0181 52.9561C24.1171 52.729 24.1644 52.4858 24.1572 52.2414C24.1501 51.997 24.0887 51.7565 23.9766 51.5345C23.7493 51.0915 23.425 50.696 23.0238 50.3723C22.0391 49.5406 20.8411 48.9495 19.5405 48.6537C18.2399 48.3579 16.8788 48.3669 15.5831 48.6799" fill="#2F2E41"/>
<path d="M14.6085 82.4636L16.7919 84.8799C17.0128 85.1244 17.2894 85.3218 17.6023 85.4585C17.9152 85.5951 18.2569 85.6677 18.6036 85.6711C18.9503 85.6745 19.2937 85.6087 19.6098 85.4783C19.9258 85.3478 20.207 85.1558 20.4336 84.9158C20.6775 84.6574 20.8517 84.3502 20.9422 84.019C21.0327 83.6878 21.0369 83.3418 20.9546 83.0088C20.8722 82.6758 20.7055 82.3651 20.468 82.1018C20.2305 81.8385 19.9287 81.6299 19.5869 81.4928L16.287 80.1685L7.28816 73.8795L7.94688 67.7135L2.7677 68.446L3.10055 75.8268L14.6085 82.4636Z" fill="#FFB8B8"/>
<path d="M28.1565 77.0199C28.1565 77.0199 26.0282 69.8888 24.9054 69.8905C23.7826 69.8922 22.2791 69.7671 22.2791 69.7671C22.2791 69.7671 20.5023 65.0154 11.3446 66.5159C2.18692 68.0165 6.15069 65.1404 3.55373 66.2658C0.956773 67.3913 0 75.2692 0 75.2692C0 75.2692 14.0782 71.0176 17.0852 73.3935C18.8121 74.7752 20.69 75.9904 22.6892 77.0199C22.6892 77.0199 21.3224 80.146 28.1565 77.0199Z" fill="#2F2E41"/>
<path d="M76.9618 127.71H21.7701V128.041H76.9618V127.71Z" fill="#3F3D56"/>
<path d="M119.348 70.7814C137.776 70.7814 152.715 57.1139 152.715 40.2542C152.715 23.3945 137.776 9.72702 119.348 9.72702C100.919 9.72702 85.9801 23.3945 85.9801 40.2542C85.9801 57.1139 100.919 70.7814 119.348 70.7814Z" fill="#E6E6E6"/>
<path d="M113.035 23.258H57.8432V23.588H113.035V23.258Z" fill="#3F3D56"/>
<path d="M166.243 32.3336H57.8432V32.6637H166.243V32.3336Z" fill="#3F3D56"/>
<path d="M132.875 64.841C114.377 64.841 99.3271 51.0725 99.3271 34.1488C99.3271 17.2251 114.377 3.45657 132.875 3.45657C151.373 3.45657 166.423 17.2251 166.423 34.1488C166.423 51.0725 151.373 64.841 132.875 64.841ZM132.875 3.7866C114.576 3.7866 99.6879 17.407 99.6879 34.1488C99.6879 50.8905 114.576 64.511 132.875 64.511C151.175 64.511 166.062 50.8905 166.062 34.1488C166.062 17.407 151.175 3.7866 132.875 3.7866V3.7866Z" fill="#3F3D56"/>
<path d="M129.78 8.05932C132.212 8.05932 134.184 6.25518 134.184 4.02966C134.184 1.80414 132.212 0 129.78 0C127.347 0 125.375 1.80414 125.375 4.02966C125.375 6.25518 127.347 8.05932 129.78 8.05932Z" fill="#FFCE82"/>
<path d="M99.453 34.5964C101.027 34.5964 102.303 33.429 102.303 31.9889C102.303 30.5489 101.027 29.3815 99.453 29.3815C97.879 29.3815 96.603 30.5489 96.603 31.9889C96.603 33.429 97.879 34.5964 99.453 34.5964Z" fill="#FFF0D0"/>
<path d="M167.491 37.9866C171.086 37.9866 174 35.3206 174 32.0318C174 28.7431 171.086 26.077 167.491 26.077C163.896 26.077 160.982 28.7431 160.982 32.0318C160.982 35.3206 163.896 37.9866 167.491 37.9866Z" fill="#FB915D"/>
<path d="M75.9993 55.5278H56.2495V55.8579H75.9993C76.9716 55.8579 77.9042 56.2112 78.5917 56.8403C79.2793 57.4693 79.6655 58.3224 79.6655 59.212C79.6655 60.1016 79.2793 60.9547 78.5917 61.5837C77.9042 62.2127 76.9716 62.5661 75.9993 62.5661H46.1145C45.1421 62.5661 44.2096 62.2127 43.5221 61.5837C42.8345 60.9547 42.4483 60.1016 42.4483 59.212C42.4483 58.3224 42.8345 57.4693 43.5221 56.8403C44.2096 56.2112 45.1421 55.8579 46.1145 55.8579H47.2313V55.5278H46.1145C45.0465 55.5278 44.0222 55.916 43.267 56.6069C42.5118 57.2978 42.0875 58.2349 42.0875 59.212C42.0875 60.1891 42.5118 61.1262 43.267 61.8171C44.0222 62.508 45.0465 62.8962 46.1145 62.8962H75.9993C77.0673 62.8962 78.0916 62.508 78.8468 61.8171C79.602 61.1262 80.0263 60.1891 80.0263 59.212C80.0263 58.2349 79.602 57.2978 78.8468 56.6069C78.0916 55.916 77.0673 55.5278 75.9993 55.5278Z" fill="#3F3D56"/>
<path d="M75.9993 66.9136H56.2495V67.2437H75.9993C76.9716 67.2437 77.9042 67.597 78.5917 68.2261C79.2793 68.8551 79.6655 69.7082 79.6655 70.5978C79.6655 71.4874 79.2793 72.3405 78.5917 72.9695C77.9042 73.5986 76.9716 73.952 75.9993 73.952H46.1145C45.1421 73.952 44.2096 73.5986 43.5221 72.9695C42.8345 72.3405 42.4483 71.4874 42.4483 70.5978C42.4483 69.7082 42.8345 68.8551 43.5221 68.2261C44.2096 67.597 45.1421 67.2437 46.1145 67.2437H47.2313V66.9136H46.1145C45.0465 66.9136 44.0222 67.3018 43.267 67.9927C42.5118 68.6836 42.0875 69.6207 42.0875 70.5978C42.0875 71.5749 42.5118 72.512 43.267 73.2029C44.0222 73.8938 45.0465 74.282 46.1145 74.282H75.9993C77.0673 74.282 78.0916 73.8938 78.8468 73.2029C79.602 72.512 80.0263 71.5749 80.0263 70.5978C80.0263 69.6207 79.602 68.6836 78.8468 67.9927C78.0916 67.3018 77.0673 66.9136 75.9993 66.9136Z" fill="#3F3D56"/>
<path d="M75.9993 78.2995H56.2495V78.6295H75.9993C76.9716 78.6295 77.9042 78.9829 78.5917 79.6119C79.2793 80.2409 79.6655 81.0941 79.6655 81.9836C79.6655 82.8732 79.2793 83.7264 78.5917 84.3554C77.9042 84.9844 76.9716 85.3378 75.9993 85.3378H46.1145C45.1421 85.3378 44.2096 84.9844 43.5221 84.3554C42.8345 83.7264 42.4483 82.8732 42.4483 81.9836C42.4483 81.0941 42.8345 80.2409 43.5221 79.6119C44.2096 78.9829 45.1421 78.6295 46.1145 78.6295H47.2313V78.2995H46.1145C45.0465 78.2995 44.0222 78.6876 43.267 79.3785C42.5118 80.0695 42.0875 81.0065 42.0875 81.9836C42.0875 82.9607 42.5118 83.8978 43.267 84.5888C44.0222 85.2797 45.0465 85.6678 46.1145 85.6678H75.9993C77.0673 85.6678 78.0916 85.2797 78.8468 84.5888C79.602 83.8978 80.0263 82.9607 80.0263 81.9836C80.0263 81.0065 79.602 80.0695 78.8468 79.3785C78.0916 78.6876 77.0673 78.2995 75.9993 78.2995V78.2995Z" fill="#3F3D56"/>
<path d="M49.4606 54.656C49.1792 54.6603 48.911 54.7656 48.7137 54.9491C48.5164 55.1326 48.4059 55.3797 48.4059 55.6371C48.4059 55.8946 48.5164 56.1417 48.7137 56.3252C48.911 56.5087 49.1792 56.614 49.4606 56.6183H54.1655C54.4494 56.6218 54.7232 56.5221 54.9269 56.3412C55.1306 56.1603 55.2476 55.9129 55.2523 55.6532C55.2569 55.3935 55.1489 55.1427 54.9517 54.9558C54.7546 54.7689 54.4846 54.6611 54.2007 54.656C54.189 54.6558 54.1773 54.6558 54.1655 54.656H49.4606Z" fill="#FB915D"/>
<path d="M49.4606 66.2068C49.1792 66.2111 48.911 66.3164 48.7137 66.4999C48.5164 66.6834 48.4059 66.9305 48.4059 67.188C48.4059 67.4454 48.5164 67.6925 48.7137 67.876C48.911 68.0596 49.1792 68.1648 49.4606 68.1691H54.1655C54.4494 68.1726 54.7232 68.0729 54.9269 67.892C55.1306 67.7111 55.2476 67.4637 55.2523 67.204C55.2569 66.9443 55.1489 66.6935 54.9517 66.5066C54.7546 66.3197 54.4846 66.2119 54.2007 66.2068C54.189 66.2066 54.1773 66.2066 54.1655 66.2068H49.4606Z" fill="#FF6584"/>
<path d="M49.4605 77.4276C49.1792 77.4318 48.9109 77.5371 48.7135 77.7206C48.5162 77.9042 48.4056 78.1513 48.4056 78.4088C48.4056 78.6662 48.5162 78.9134 48.7135 79.0969C48.9109 79.2805 49.1792 79.3857 49.4605 79.3899H54.1655C54.4497 79.3939 54.7241 79.2945 54.9282 79.1136C55.1324 78.9326 55.2497 78.6849 55.2544 78.4249C55.2591 78.1648 55.1507 77.9137 54.9531 77.7267C54.7556 77.5397 54.4849 77.4321 54.2007 77.4276C54.189 77.4274 54.1772 77.4274 54.1655 77.4276H49.4605Z" fill="#FFCE82"/>
<path d="M47.5944 58.2309C47.313 58.2351 47.0448 58.3404 46.8475 58.5239C46.6502 58.7075 46.5396 58.9546 46.5396 59.212C46.5396 59.4694 46.6502 59.7166 46.8475 59.9001C47.0448 60.0837 47.313 60.1889 47.5944 60.1932H74.4842C74.6253 60.1956 74.7655 60.1726 74.8968 60.1254C75.0281 60.0782 75.148 60.0077 75.2495 59.9181C75.351 59.8284 75.4321 59.7214 75.4884 59.603C75.5446 59.4846 75.5747 59.3572 75.577 59.2282C75.5793 59.0991 75.5538 58.9709 75.5018 58.8509C75.4499 58.7309 75.3726 58.6214 75.2744 58.5288C75.1762 58.4361 75.0589 58.3621 74.9294 58.311C74.7998 58.2599 74.6605 58.2326 74.5195 58.2309C74.5077 58.2307 74.496 58.2307 74.4842 58.2309H47.5944Z" fill="#E6E6E6"/>
<path d="M47.5944 69.6167C47.313 69.6209 47.0448 69.7262 46.8475 69.9097C46.6502 70.0933 46.5396 70.3404 46.5396 70.5978C46.5396 70.8553 46.6502 71.1024 46.8475 71.2859C47.0448 71.4695 47.313 71.5747 47.5944 71.579H74.4842C74.6253 71.5814 74.7655 71.5584 74.8968 71.5112C75.0281 71.464 75.148 71.3935 75.2495 71.3039C75.351 71.2143 75.4321 71.1072 75.4884 70.9888C75.5446 70.8704 75.5747 70.743 75.577 70.614C75.5793 70.4849 75.5538 70.3567 75.5018 70.2367C75.4499 70.1167 75.3726 70.0072 75.2744 69.9146C75.1762 69.8219 75.0589 69.7479 74.9294 69.6968C74.7998 69.6457 74.6605 69.6184 74.5195 69.6167C74.5077 69.6165 74.496 69.6165 74.4842 69.6167H47.5944Z" fill="#E6E6E6"/>
<path d="M47.5944 81.0025C47.313 81.0067 47.0448 81.112 46.8475 81.2955C46.6502 81.4791 46.5396 81.7262 46.5396 81.9836C46.5396 82.2411 46.6502 82.4882 46.8475 82.6717C47.0448 82.8553 47.313 82.9605 47.5944 82.9648H74.4842C74.6253 82.9672 74.7655 82.9442 74.8968 82.897C75.0281 82.8498 75.148 82.7793 75.2495 82.6897C75.351 82.6001 75.4321 82.493 75.4884 82.3746C75.5446 82.2562 75.5747 82.1288 75.577 81.9998C75.5793 81.8707 75.5538 81.7425 75.5018 81.6225C75.4499 81.5025 75.3726 81.393 75.2744 81.3004C75.1762 81.2078 75.0589 81.1338 74.9294 81.0826C74.7998 81.0315 74.6605 81.0043 74.5195 81.0025C74.5077 81.0023 74.496 81.0023 74.4842 81.0025H47.5944Z" fill="#E6E6E6"/>
<path d="M74.9145 117.86C74.6341 116.207 74.0872 114.6 73.2916 113.094L73.1756 112.874L72.3141 113.748L72.9524 112.446L72.9107 112.371C72.3474 111.351 71.7231 110.36 71.0407 109.403L70.9141 109.225L70.7453 109.396L70.8635 109.155L70.8043 109.074C69.9591 107.914 69.3098 107.181 69.3034 107.173L69.1197 106.967L69.0016 107.213C68.98 107.258 66.8338 111.783 66.5495 116.254L66.545 116.323L67.9895 117.921L66.5164 117.075L66.519 117.382C66.5235 117.907 66.5625 118.432 66.636 118.953C66.7009 119.401 66.7772 119.839 66.8651 120.266C67.0043 120.27 67.1398 120.309 67.2568 120.378C67.155 119.901 67.0673 119.41 66.9935 118.906C66.9366 118.504 66.9008 118.096 66.8865 117.689L69.7357 119.325L66.9141 116.205C67.171 112.425 68.7655 108.617 69.2132 107.611C69.4534 107.897 69.9066 108.45 70.4488 109.189L69.4632 111.199L70.8683 109.774C71.4775 110.641 72.0387 111.537 72.5497 112.456L71.032 115.551L73.084 113.469C73.8007 114.879 74.2968 116.375 74.5577 117.911C74.9169 120.393 74.8468 122.778 74.3603 124.625C73.8943 126.395 73.0731 127.483 72.107 127.61C71.9082 127.635 71.7059 127.624 71.5118 127.577C71.3561 127.678 71.1687 127.731 70.9777 127.726H70.9251C71.2248 127.879 71.5607 127.961 71.9033 127.967C71.988 127.967 72.0726 127.961 72.1564 127.95C73.2921 127.801 74.1991 126.65 74.7102 124.709C75.2076 122.82 75.2804 120.389 74.9145 117.86Z" fill="#3F3D56"/>
<path d="M71.7358 127.836C70.2501 127.836 68.1081 127.088 65.9835 125.727C65.6708 125.526 65.3722 125.306 65.0895 125.07L64.8515 124.871L65.7512 124.634L64.5532 124.594L64.5027 124.545C62.2571 122.394 60.8597 119.355 60.8458 119.324L60.7366 119.084L61.0205 119.096C61.0488 119.097 61.7238 119.126 62.7384 119.258L62.8016 119.266V119.266L63.0241 119.297C63.8525 119.412 64.6733 119.57 65.4823 119.769L65.5687 119.791L65.8387 120.399L65.7977 119.853L66.0454 119.919C67.2191 120.229 68.334 120.702 69.351 121.321C72.582 123.391 74.3698 125.978 73.4248 127.212C73.1017 127.634 72.5071 127.836 71.7358 127.836ZM65.5775 125.023C65.7749 125.176 65.9803 125.322 66.1909 125.457C69.1502 127.353 72.3275 128.07 73.1292 127.023C73.9307 125.976 72.1073 123.49 69.1477 121.593C68.2346 121.038 67.2398 120.604 66.1931 120.304L66.3532 122.435L65.302 120.067C64.6097 119.899 63.9014 119.76 63.1924 119.655L63.3085 121.202L62.585 119.571C62.0245 119.501 61.5726 119.463 61.2977 119.443C61.6725 120.196 62.9107 122.521 64.7132 124.269L68.0193 124.38L65.5775 125.023Z" fill="#3F3D56"/>
</g>
<defs>
<clipPath id="clip0">
<rect width="174" height="133" fill="white"/>
</clipPath>
</defs>
</svg>
