<svg width="102" height="106" viewBox="0 0 102 106" fill="none" xmlns="http://www.w3.org/2000/svg">
<path d="M100.406 13.25H9.5625C6.92166 13.25 4.78125 11.0257 4.78125 8.28125C4.78125 5.53684 6.92166 3.3125 9.5625 3.3125H100.406V13.25Z" fill="#FFBA4A"/>
<path d="M98.8125 1.65625H7.96875C4.45294 1.65625 1.59375 4.62756 1.59375 8.28125C1.59375 11.9349 4.45294 14.9062 7.96875 14.9062H97.2188V46.375H90.7832C90.1616 32.5354 81.8614 21.5312 71.7188 21.5312H20.7188C10.1729 21.5312 1.59375 33.4198 1.59375 48.0312V102.688C1.59375 103.602 2.30775 104.344 3.1875 104.344H20.7188C21.0327 104.344 21.3419 104.246 21.6033 104.066L25.9829 101.031H32.9874L37.3671 104.066C37.6268 104.246 37.936 104.344 38.25 104.344H54.1875C55.0672 104.344 55.7812 103.602 55.7812 102.688V74.5312H71.7188C81.8614 74.5312 90.1616 63.5271 90.7832 49.6875H98.8125C99.6922 49.6875 100.406 48.9455 100.406 48.0312V13.25V3.3125C100.406 2.39825 99.6922 1.65625 98.8125 1.65625ZM52.5938 101.031H38.7329L34.3533 97.997C34.0919 97.8165 33.7827 97.7188 33.4688 97.7188H25.5C25.186 97.7188 24.8768 97.8165 24.6155 97.997L20.2358 101.031H4.78125V48.0312C4.78125 35.245 11.9308 24.8438 20.7188 24.8438H62.4798C56.5925 29.367 52.5938 38.0606 52.5938 48.0312V101.031ZM55.7812 71.2188V62.6477C57.4818 66.197 59.7816 69.1451 62.4798 71.2188H55.7812ZM71.7188 71.2188C62.9308 71.2188 55.7812 60.8175 55.7812 48.0312C55.7812 35.245 62.9308 24.8438 71.7188 24.8438C80.1226 24.8438 87.0108 34.3622 87.5989 46.375H78.0013C77.5088 41.6199 74.9302 38.0938 71.7188 38.0938C68.144 38.0938 65.3438 42.4596 65.3438 48.0312C65.3438 53.6029 68.144 57.9688 71.7188 57.9688C74.9302 57.9688 77.5088 54.4426 78.0013 49.6875H87.5989C87.0108 61.7003 80.1226 71.2188 71.7188 71.2188ZM68.654 46.375C69.0524 43.4484 70.4437 41.4062 71.7188 41.4062C72.9938 41.4062 74.3851 43.4484 74.7835 46.375H68.654ZM74.7835 49.6875C74.3851 52.6141 72.9938 54.6562 71.7188 54.6562C70.4437 54.6562 69.0524 52.6141 68.654 49.6875H74.7835ZM4.78125 8.28125C4.78125 6.45441 6.21084 4.96875 7.96875 4.96875H97.2188V11.5938H7.96875C6.21084 11.5938 4.78125 10.1081 4.78125 8.28125Z" fill="#B3404A"/>
<g clip-path="url(#clip0)">
<path fill-rule="evenodd" clip-rule="evenodd" d="M14.8905 62.065C14.8905 64.7745 15.76 67.2886 17.2446 69.3639C19.9099 73.0905 23.2664 77.3737 23.2664 81.4024H33.3179C33.3179 77.3737 36.6744 73.0905 39.3397 69.3639C40.8243 67.2889 41.6938 64.7745 41.6938 62.065C41.6938 54.9447 35.6937 49.1731 28.292 49.1731C20.8907 49.1731 14.8905 54.9447 14.8905 62.065V62.065Z" fill="#FFBA4A"/>
<path fill-rule="evenodd" clip-rule="evenodd" d="M28.2924 81.4025H23.2664C22.5756 81.4025 22.0104 81.9462 22.0104 82.6111V86.2369C22.0104 86.9018 22.5756 87.4455 23.2664 87.4455H33.3179C34.0087 87.4455 34.5739 86.9018 34.5739 86.2369V82.6111C34.5739 81.9462 34.0087 81.4025 33.3179 81.4025H28.2924Z" fill="#999999"/>
<path fill-rule="evenodd" clip-rule="evenodd" d="M33.3179 87.4455H23.2664V89.057C23.2664 89.9434 24.0206 90.6685 24.9416 90.6685H31.6427C32.5642 90.6685 33.3179 89.9434 33.3179 89.057V87.4455Z" fill="#999999"/>
<path d="M18.8171 53.9549C19.0703 53.9549 19.3242 53.8671 19.5255 53.6893C19.5398 53.6767 19.5549 53.6625 19.5684 53.6492C19.9774 53.2561 19.9774 52.6184 19.5684 52.2249C19.1594 51.8315 18.4969 51.8315 18.0879 52.2249C18.0867 52.2261 18.0846 52.2277 18.0826 52.2297C17.6818 52.6085 17.663 53.2282 18.0458 53.6291C18.2523 53.8455 18.5345 53.9549 18.8171 53.9549Z" fill="#FB915D"/>
<path d="M28.2924 48.1655C26.0053 48.1655 23.7269 48.6935 21.7033 49.692C21.1888 49.9458 20.9859 50.5529 21.2497 51.0478C21.5135 51.5427 22.1446 51.7383 22.6591 51.4845C24.4132 50.619 26.3084 50.1799 28.2924 50.1799C35.1043 50.1799 40.6468 55.5116 40.6468 62.065C40.6468 64.4826 39.8964 66.809 38.4772 68.793C38.2559 69.1027 38.0294 69.4162 37.8007 69.7333C35.4258 73.024 32.7617 76.7167 32.3323 80.3953H24.252C23.8226 76.7167 21.1585 73.024 18.7836 69.7333C18.5545 69.4162 18.3284 69.1027 18.1067 68.793C16.688 66.809 15.9375 64.4826 15.9375 62.065C15.9375 59.8523 16.5739 57.6936 17.7771 55.8221C18.0814 55.3492 17.9292 54.7287 17.4376 54.436C16.9456 54.1429 16.3007 54.2896 15.9964 54.7625C14.5878 56.9524 13.8435 59.4774 13.8435 62.065C13.8435 64.8918 14.7212 67.6135 16.382 69.9351C16.6049 70.2471 16.8332 70.5627 17.0638 70.8821C19.305 73.9871 21.8219 77.476 22.1757 80.66C21.4546 81.0346 20.9634 81.7687 20.9634 82.611V86.2369C20.9634 87.0961 21.4747 87.8421 22.2194 88.2095V89.057C22.2194 90.5009 23.4406 91.6757 24.9416 91.6757H31.6427C33.1437 91.6757 34.3649 90.5009 34.3649 89.057V88.2095C35.1097 87.8421 35.6209 87.0961 35.6209 86.2369V82.611C35.6209 81.7687 35.1297 81.0346 34.4087 80.66C34.7628 77.476 37.2797 73.9871 39.5205 70.8821C39.7512 70.5627 39.9794 70.2467 40.2023 69.9351C41.8631 67.6135 42.7408 64.8922 42.7408 62.065C42.7408 54.401 36.2593 48.1655 28.2924 48.1655V48.1655ZM33.5269 82.611V83.4168H30.278C29.6997 83.4168 29.231 83.8677 29.231 84.424C29.231 84.9799 29.6997 85.4311 30.278 85.4311H33.5269V86.2369C33.5269 86.3463 33.4312 86.4383 33.3179 86.4383H23.2664C23.1531 86.4383 23.0574 86.3463 23.0574 86.2369V82.611C23.0574 82.5017 23.1531 82.4096 23.2664 82.4096H33.3179C33.4312 82.4096 33.5269 82.5017 33.5269 82.611ZM31.6427 89.6613H24.9416C24.6013 89.6613 24.3134 89.3847 24.3134 89.057V88.4527H32.2709V89.057C32.2709 89.3847 31.983 89.6613 31.6427 89.6613V89.6613Z" fill="#B3404A"/>
<path d="M28.2924 45.3132C28.8703 45.3132 29.3394 44.8619 29.3394 44.306V41.1153C29.3394 40.559 28.8703 40.1081 28.2924 40.1081C27.7141 40.1081 27.2454 40.559 27.2454 41.1153V44.306C27.2454 44.8619 27.7141 45.3132 28.2924 45.3132Z" fill="#B3404A"/>
<path d="M14.4979 50.2196C14.7024 50.416 14.9702 50.5147 15.2381 50.5147C15.506 50.5147 15.7743 50.416 15.9788 50.2196C16.3874 49.8262 16.3874 49.1885 15.9788 48.795L13.6333 46.5391C13.2243 46.1461 12.5618 46.1461 12.1528 46.5391C11.7438 46.9325 11.7438 47.5703 12.1528 47.9637L14.4979 50.2196Z" fill="#B3404A"/>
<path d="M9.83141 61.0578H6.51458C5.93628 61.0578 5.46759 61.5087 5.46759 62.065C5.46759 62.6209 5.93628 63.0722 6.51458 63.0722H9.83141C10.4093 63.0722 10.8784 62.6209 10.8784 62.065C10.8784 61.5087 10.4093 61.0578 9.83141 61.0578Z" fill="#B3404A"/>
<path d="M14.4979 73.9104L12.1528 76.1663C11.7438 76.5593 11.7438 77.1971 12.1528 77.5905C12.3573 77.7872 12.6251 77.8856 12.893 77.8856C13.1609 77.8856 13.4288 77.7872 13.6333 77.5905L15.9788 75.3346C16.3874 74.9415 16.3874 74.3038 15.9788 73.9104C15.5698 73.5169 14.9068 73.5169 14.4979 73.9104Z" fill="#B3404A"/>
<path d="M42.0864 73.9104C41.6775 73.5169 41.0149 73.5169 40.6055 73.9104C40.197 74.3034 40.197 74.9412 40.6055 75.3346L42.9506 77.5905C43.1551 77.7872 43.4234 77.8856 43.6913 77.8856C43.9592 77.8856 44.2271 77.7872 44.4315 77.5905C44.8401 77.1975 44.8401 76.5597 44.4315 76.1663L42.0864 73.9104Z" fill="#B3404A"/>
<path d="M50.0698 61.0578H46.7533C46.1751 61.0578 45.7064 61.5087 45.7064 62.065C45.7064 62.6209 46.1751 63.0722 46.7533 63.0722H50.0698C50.6481 63.0722 51.1168 62.6209 51.1168 62.065C51.1168 61.5087 50.6481 61.0578 50.0698 61.0578V61.0578Z" fill="#B3404A"/>
<path d="M42.951 46.5391L40.6055 48.795C40.197 49.1884 40.197 49.8262 40.6055 50.2196C40.81 50.4159 41.0779 50.5147 41.3462 50.5147C41.6141 50.5147 41.882 50.4159 42.0864 50.2196L44.4315 47.9637C44.8401 47.5703 44.8401 46.9325 44.4315 46.5391C44.0226 46.1457 43.36 46.1457 42.951 46.5391Z" fill="#B3404A"/>
<path d="M27.245 85.4312H27.2695C27.8478 85.4312 28.3165 84.9803 28.3165 84.424C28.3165 83.8681 27.8478 83.4168 27.2695 83.4168H27.245C26.6667 83.4168 26.198 83.8681 26.198 84.424C26.198 84.9803 26.6667 85.4312 27.245 85.4312Z" fill="#FB915D"/>
<path d="M29.0322 68.1006C28.6232 67.7072 27.9603 67.7072 27.5513 68.1006C27.1427 68.494 27.1427 69.1318 27.5513 69.5248C27.9603 69.9183 28.6232 69.9183 29.0322 69.5248C29.4412 69.1318 29.4412 68.494 29.0322 68.1006Z" fill="#B3404A"/>
<path d="M34.2148 64.1226C34.4827 64.1226 34.7506 64.0243 34.9551 63.8276C35.3641 63.4341 35.3641 62.7964 34.9551 62.403C31.2812 58.8688 25.3031 58.8688 21.6293 62.403C21.2203 62.7964 21.2203 63.4341 21.6293 63.8276C22.0383 64.2206 22.7008 64.2206 23.1098 63.8276C25.9673 61.0787 30.617 61.0787 33.4746 63.8276C33.6791 64.0243 33.9469 64.1226 34.2148 64.1226Z" fill="#B3404A"/>
<path d="M31.2534 66.9714C31.5217 66.9714 31.7892 66.8727 31.9937 66.6764C32.4026 66.2829 32.4026 65.6452 31.9937 65.2518C29.9524 63.2886 26.6315 63.2886 24.5903 65.2518C24.1817 65.6452 24.1817 66.2829 24.5903 66.6764C24.9993 67.0694 25.6622 67.0694 26.0712 66.6764C27.2957 65.4981 29.2887 65.4981 30.5132 66.6764C30.7176 66.8727 30.9855 66.9714 31.2534 66.9714Z" fill="#B3404A"/>
</g>
<defs>
<clipPath id="clip0">
<rect width="53.6058" height="51.5676" fill="white" transform="translate(1.48904 40.1081)"/>
</clipPath>
</defs>
</svg>
