<svg width="42" height="45" viewBox="0 0 42 45" fill="none" xmlns="http://www.w3.org/2000/svg">
<g clip-path="url(#clip0)">
<path d="M35.2734 19.7562C30.5612 16.0007 23.5649 10.4248 21.5578 8.8252H20.4421L6.72655 19.7562V38.0567H30.0529L35.2734 32.4633V19.7562Z" fill="white"/>
<path d="M31.4999 9.29677V4.21881H36.7499V13.4314L31.4999 9.29677Z" fill="#EF3C3C"/>
<path d="M0.820297 16.9618C0.820297 16.9618 3.55341 19.8961 4.83055 21.2672L20.9999 8.38051C20.9999 8.38051 32.0199 17.1632 37.1693 21.2672L41.1796 16.9618L20.9999 0.878967L0.820297 16.9618Z" fill="#FF5D5D"/>
<path d="M7.21872 44.1211H1.64061C1.18755 44.1211 0.820297 43.7276 0.820297 43.2422V30.2344C0.820297 29.749 1.18755 29.3555 1.64061 29.3555H7.21872C7.67178 29.3555 8.03903 29.749 8.03903 30.2344V43.2422C8.03903 43.7276 7.67178 44.1211 7.21872 44.1211Z" fill="#FEA02C"/>
<path d="M36.8978 30.941C35.9868 29.8997 34.4749 29.8035 33.4552 30.7218L26.9252 36.6027L23.1984 39.0298L23.9317 37.5021C23.9544 36.8242 23.6598 36.148 23.0914 35.742L17.6036 31.8222C16.7961 31.2453 15.8474 30.9375 14.8768 30.9375H8.03906V42.2767L12.9259 44.1211H24.6393C25.8022 44.1211 26.9273 43.6795 27.815 42.8746L36.6883 34.8287C37.7835 33.8358 37.8789 32.0625 36.8978 30.941Z" fill="#FFCDAC"/>
<path d="M36.6796 21.9733C36.8258 22.0899 36.9978 22.1471 37.169 22.1471C37.3805 22.1471 37.5909 22.0597 37.7499 21.889L41.7601 17.5836C41.9285 17.4029 42.0151 17.1529 41.9976 16.8983C41.9801 16.6437 41.8603 16.4099 41.6692 16.2575L37.5701 12.9907V4.21972C37.5701 3.7343 37.2027 3.34081 36.7498 3.34081H31.4998C31.0468 3.34081 30.6795 3.7343 30.6795 4.21972V7.499L21.4894 0.174736C21.1988 -0.0569432 20.8008 -0.0569432 20.5102 0.174736L13.3271 5.89957C12.9636 6.18926 12.8881 6.73989 13.1585 7.12933C13.429 7.51886 13.9429 7.59972 14.3063 7.30995L20.9998 1.97535L39.9287 17.0613L37.0897 20.1093L21.4894 7.67628C21.1988 7.4446 20.8008 7.4446 20.5102 7.67628L4.90997 20.1093L2.07095 17.0613L9.42693 11.1987C9.79041 10.9091 9.86596 10.3584 9.5955 9.96899C9.32505 9.57946 8.8112 9.49868 8.44772 9.78837L0.3305 16.2575C0.139367 16.4099 0.01952 16.6437 0.00204737 16.8983C-0.0155073 17.1528 0.0711996 17.4029 0.239527 17.5836L4.24978 21.889C4.53746 22.1979 4.99315 22.2338 5.32004 21.9733L5.90607 21.5062V28.4775H1.64045C0.735816 28.4775 -0.000167472 29.266 -0.000167472 30.2353V43.2431C-0.000167472 44.2123 0.735816 45.0009 1.64045 45.0009H7.21857C8.03798 45.0009 8.71703 44.3532 8.83803 43.5111L12.6532 44.951C12.7407 44.984 12.8329 45.0009 12.9257 45.0009H24.6391C25.9943 45.0009 27.3103 44.4844 28.3447 43.5464L37.218 35.5006C37.9209 34.8633 38.3374 33.9698 38.3904 32.9847C38.4435 31.9996 38.1258 31.0607 37.4961 30.3409C37.0979 29.8858 36.6129 29.5676 36.0935 29.3879V21.5062L36.6796 21.9733ZM32.3201 5.09862H35.9295V11.6831L32.3201 8.80655V5.09862ZM7.21857 43.2431H1.64045V30.2353H3.6092V36.7392C3.6092 37.2246 3.97654 37.6181 4.42951 37.6181C4.88249 37.6181 5.24982 37.2246 5.24982 36.7392V30.2353H7.21857V30.9372C7.21857 30.9376 7.21857 30.938 7.21857 30.9384C7.21857 30.9389 7.21857 30.9392 7.21857 30.9397L7.21947 42.2379C7.21857 42.2582 7.21906 42.2784 7.21947 42.2985L7.21964 43.2431C7.21964 43.2431 7.21931 43.2431 7.21857 43.2431ZM34.4529 29.2758C33.9074 29.3853 33.3806 29.6417 32.9272 30.0499L26.3972 35.9309C26.0504 36.2431 26.0056 36.7976 26.297 37.1692C26.5887 37.5408 27.106 37.5887 27.4529 37.2764L33.9829 31.3955C34.6689 30.7777 35.6863 30.8424 36.299 31.5429C36.6184 31.9079 36.7793 32.3839 36.7525 32.8833C36.7256 33.3827 36.5145 33.8356 36.1581 34.1588L27.2848 42.2046C26.5462 42.8743 25.6067 43.2431 24.639 43.2431H13.066L8.85919 41.6553V31.8173H14.8766C15.6879 31.8173 16.4734 32.0721 17.1484 32.5543L22.6362 36.4741C22.8811 36.6491 23.0444 36.9165 23.096 37.2271C23.1476 37.5377 23.0805 37.8491 22.9069 38.1039C22.6034 38.5494 22.0459 38.7006 21.5814 38.4625L16.8865 36.0598C16.4775 35.8505 15.9879 36.036 15.7927 36.474C15.5974 36.912 15.7705 37.4367 16.1793 37.6459L20.8742 40.0486C21.2486 40.2403 21.6468 40.3322 22.0406 40.3322C22.8845 40.3322 23.708 39.9096 24.2322 39.1399C24.6718 38.4945 24.842 37.7056 24.7113 36.9188C24.5805 36.1321 24.1668 35.4548 23.5462 35.0114L18.0584 31.0916C17.1131 30.4164 16.0128 30.0595 14.8767 30.0595H8.85091C8.77921 29.2899 8.2424 28.6649 7.54678 28.5129V20.1986L20.9999 9.4768L34.453 20.1986V29.2758H34.4529Z" fill="black"/>
<path d="M11.4499 9.3692C11.6656 9.3692 11.8764 9.27516 12.0298 9.11168C12.1823 8.9482 12.2702 8.72145 12.2702 8.49029C12.2702 8.25914 12.1824 8.03238 12.0298 7.86891C11.8773 7.70543 11.6656 7.61139 11.4499 7.61139C11.2332 7.61139 11.0216 7.70543 10.8691 7.86891C10.7165 8.03238 10.6296 8.25914 10.6296 8.49029C10.6296 8.72145 10.7165 8.9482 10.8691 9.11168C11.0225 9.27516 11.2333 9.3692 11.4499 9.3692Z" fill="black"/>
<path d="M17.8715 28.8753C17.9989 28.9524 18.1373 28.989 18.274 28.989C18.5602 28.989 18.8383 28.8282 18.9891 28.542L24.4479 18.1818C24.6706 17.7591 24.5314 17.223 24.1368 16.9844C23.7423 16.7457 23.242 16.8948 23.0192 17.3176L17.5604 27.6779C17.3377 28.1006 17.4769 28.6367 17.8715 28.8753Z" fill="black"/>
<path d="M21.8242 26.6226C21.8242 28.2704 23.0753 29.6109 24.6133 29.6109C26.1512 29.6109 27.4023 28.2704 27.4023 26.6226C27.4023 24.9748 26.1512 23.6343 24.6133 23.6343C23.0753 23.6343 21.8242 24.9748 21.8242 26.6226ZM24.6133 25.3921C25.2465 25.3921 25.7617 25.9441 25.7617 26.6226C25.7617 27.3011 25.2465 27.8531 24.6133 27.8531C23.98 27.8531 23.4648 27.3011 23.4648 26.6226C23.4648 25.9441 23.98 25.3921 24.6133 25.3921Z" fill="black"/>
<path d="M20.184 18.1065C20.184 16.4587 18.9329 15.1182 17.3949 15.1182C15.857 15.1182 14.6059 16.4587 14.6059 18.1065C14.6059 19.7543 15.857 21.0948 17.3949 21.0948C18.9329 21.0948 20.184 19.7543 20.184 18.1065ZM17.3949 19.337C16.7617 19.337 16.2465 18.785 16.2465 18.1065C16.2465 17.428 16.7617 16.876 17.3949 16.876C18.0282 16.876 18.5434 17.428 18.5434 18.1065C18.5434 18.785 18.0282 19.337 17.3949 19.337Z" fill="black"/>
<path d="M4.4707 39.3311C4.25496 39.3311 4.04332 39.4251 3.89074 39.5886C3.73734 39.7521 3.65039 39.9788 3.65039 40.21C3.65039 40.4411 3.73734 40.6679 3.89074 40.8313C4.04332 40.9948 4.25496 41.0889 4.4707 41.0889C4.68644 41.0889 4.89808 40.9948 5.05058 40.8313C5.20316 40.6679 5.29101 40.4411 5.29101 40.21C5.29101 39.9788 5.20324 39.7521 5.05058 39.5886C4.89808 39.4251 4.68644 39.3311 4.4707 39.3311Z" fill="black"/>
</g>
<defs>
<clipPath id="clip0">
<rect width="42" height="45" fill="white"/>
</clipPath>
</defs>
</svg>
