<svg width="46" height="39" viewBox="0 0 46 39" fill="none" xmlns="http://www.w3.org/2000/svg">
<path d="M8.00014 0.599731V37.0961L11.7499 38.3569L15.4998 37.0961L19.2496 38.3569L22.9994 37.0961L26.7494 38.3569L30.4992 37.0961L34.2495 38.3569L37.9999 37.0961V0.599731H8.00014Z" fill="#ED664C"/>
<path d="M0.673828 5.05182H4.33703V8.71127H0.673828V5.05182Z" fill="#F5BD74"/>
<path d="M4.33702 1.99744H8.00022V11.7655H4.33702V1.99744Z" fill="#ED664C"/>
<path d="M45.3262 8.71124H41.663V5.05179H45.3262V8.71124Z" fill="#F5BD74"/>
<path d="M41.663 11.7656H37.9998V1.99757H41.663V11.7656Z" fill="#ED664C"/>
<path d="M17.2967 37.0961L16.3983 37.3982L19.2496 38.3569L20.148 38.0548L17.2967 37.0961Z" fill="#FF5D5D"/>
<path d="M9.79701 37.0961V0.599731H8.00014V37.0961L11.7499 38.3569L12.6484 38.0548L9.79701 37.0961Z" fill="#FF5D5D"/>
<path d="M32.2961 37.0961L31.3976 37.3982L34.2495 38.3569L35.148 38.0548L32.2961 37.0961Z" fill="#FF5D5D"/>
<path d="M24.7962 37.0961L23.8978 37.3982L26.7494 38.3569L27.6477 38.0548L24.7962 37.0961Z" fill="#FF5D5D"/>
<path d="M0.673828 5.05182H2.4707V8.71127H0.673828V5.05182Z" fill="#F1A440"/>
<path d="M4.33702 1.99744H6.1339V11.7655H4.33702V1.99744Z" fill="#FF5D5D"/>
<path d="M41.663 5.05182H43.4599V8.71127H41.663V5.05182Z" fill="#F1A440"/>
<path d="M37.9998 1.99744H39.7967V11.7655H37.9998V1.99744Z" fill="#FF5D5D"/>
<path d="M27.6502 3.6748H26.3027V2.53223H27.6502V3.6748ZM23.6073 3.6748H22.2596V2.53223H23.6073V3.6748ZM19.5643 3.6748H18.2166V2.53223H19.5643V3.6748Z" fill="white"/>
<path d="M7.32675 6.04203H8.67441V1.17084H37.3256V33.1866H38.6732V0.0282593H7.32675V6.04203Z" fill="black"/>
<path d="M37.3256 36.7079L34.2493 37.7426L30.4993 36.4812L26.7492 37.7426L22.9991 36.4812L19.2498 37.7426L15.4998 36.4812L11.7498 37.7426L8.67441 36.7079V7.18463H7.32675V37.4837L11.7497 38.9717L15.4998 37.7104L19.2499 38.9717L22.9992 37.7104L26.7492 38.9717L30.4993 37.7104L34.2493 38.9717L38.6732 37.4837V34.3292H37.3256V36.7079Z" fill="black"/>
<path d="M0 9.2824H1.64145V8.13983H1.34766V5.62311H1.64145V4.48053H0V9.2824Z" fill="black"/>
<path d="M3.66293 12.3369H5.30438V11.1943H5.01059V2.5686H5.30438V1.42603H3.66293V12.3369Z" fill="black"/>
<path d="M44.3586 4.48053V5.62311H44.6523V8.13983H44.3586V9.2824H46V4.48053H44.3586Z" fill="black"/>
<path d="M40.6956 2.5686H40.9894V11.1943H40.6956V12.3369H42.3371V1.42603H40.6956V2.5686Z" fill="black"/>
<path d="M35.7812 30.6761H34.4335V29.5336H35.7812V30.6761ZM31.7382 30.6761H30.3905V29.5336H31.7382V30.6761ZM27.6952 30.6761H26.3476V29.5336H27.6952V30.6761ZM23.6523 30.6761H22.3046V29.5336H23.6523V30.6761ZM19.6093 30.6761H18.2616V29.5336H19.6093V30.6761ZM15.5663 30.6761H14.2187V29.5336H15.5663V30.6761ZM11.5234 30.6761H10.1757V29.5336H11.5234V30.6761Z" fill="black"/>
<path d="M10.5679 2.53223H11.9155V3.6748H10.5679V2.53223Z" fill="black"/>
<path d="M34.2867 2.53223H35.6344V3.6748H34.2867V2.53223Z" fill="black"/>
</svg>
